<?xml version="1.0" encoding="UTF-8"?>
<svg width="1449px" height="1449px" viewBox="0 0 1449 1449" version="1.1" xmlns="http://www.w3.org/2000/svg" xmlns:xlink="http://www.w3.org/1999/xlink">
    <title>3797E034-3958-4BA0-8801-87E497321716</title>
    <g id="Page-1" stroke="none" stroke-width="1" fill="none" fill-rule="evenodd" opacity="0.060266" stroke-linecap="round" stroke-linejoin="round">
        <g id="Home" transform="translate(-268, -1066)" stroke="#E3ECEF" stroke-width="3">
            <g id="Group-10" transform="translate(0, 1070)">
                <g id="#26-copy-2" transform="translate(719.5, 380) scale(-1, 1) translate(-719.5, -380)">
                    <g id="bg-geometric" transform="translate(445.5, 720.5) scale(-1, 1) translate(-445.5, -720.5)translate(-278, -4)">
                        <path d="M1349.29828,479.088487 L1375.08232,397.54821 M1375.0774,397.545754 L1255.89841,317.837732 L1230.45095,395.60543 M1230.4485,395.602973 L1349.29337,479.083575 M1269.80385,246.409245 L1255.88858,317.847556 L1108.50807,288.069722 M1108.52281,288.054986 L1085.51986,355.885277 M1085.52477,355.887733 L1230.46078,395.60543 L1193.78578,478.302533 M1121.51924,225.69911 L1108.49824,288.082003 L974.151007,316.41319 M1121.51924,225.69911 L1124.49196,169.829566 M1121.51924,225.69911 L985.221313,266.18827 M974.14855,316.418102 L955.164916,370.879806 M955.160002,370.87735 L1085.49038,355.91475 L1052.79539,427.989193 M985.226227,266.185814 L974.158377,316.408278 L889.661919,394.23001 M898.295087,356.076853 L889.654548,394.234922 L882.792727,413.679917 L881.684714,416.811452 L881.598726,417.064431 L875.098054,435.48523 L863.285796,460.910843 L862.389067,462.846255 L854.839344,479.100767 L853.598664,481.286702 L853.036059,482.281425 L829.20763,524.293125 L798.637763,570.237052 L763.680065,616.080278 L756.801046,624.055256 L756.21633,624.728229 L724.968388,660.960711 L683.222573,704.030993 L639.223879,744.483066 L638.157631,745.354984 L593.805159,781.560449 L547.81892,814.587712 L502.120126,842.955741 L457.55637,866.175771 L449.382622,869.567654 M449.382622,869.567654 L416.871889,883.051678 L414.94085,883.852369 L414.346306,884.026752 L413.90654,884.161838 L375.027802,895.712907 L338.517411,901.600194 M449.382622,869.567654 L362.510445,821.204462 L367.861338,842.034701 M875.112795,435.470493 L888.539165,424.636607 L889.428523,423.92188 L955.179657,370.860157 L928.538201,428.610588 M1172.89322,19.5789751 L1212.84067,45.2140947 L1075.27995,49.4140367 M1172.89322,19.5789751 L1283.43659,83.7830706 L1325.87277,110.966765 L1358.35648,148.959293 L1415.72749,265.146881 L1436.80677,312.038865 L1447,368.170721 L1445.88462,432.709829 L1426.78306,546.290015 L1415.70292,609.372652 L1394.6605,677.632761 L1363.90883,749.854571 L1323.9147,824.682309 L1275.36357,900.691434 L1219.12268,976.398459 L1217.25798,978.594218 L1156.26565,1050.30761 L1088.01105,1120.93787 L1015.71502,1186.88432 L940.812335,1246.86244 L864.79181,1299.71294 L789.154544,1344.44355 L715.36233,1380.27814 L644.808168,1406.62234 L578.789244,1423.11509 L469.791196,1441.65379 M1172.89322,19.5789751 L1124.24136,4.50616933 L1067.86289,0 L950.224306,9.4984758 L895.344479,14.6534993 L835.450339,28.751059 L771.563911,51.4182195 L704.717049,82.1789875 L635.968629,120.461581 L566.365245,165.606291 L496.948578,216.884635 L428.735739,273.505011 L362.719272,334.610483 L299.864697,399.304326 L241.081027,466.643396 L187.252461,535.640337 L139.198832,605.297971 L97.6802697,674.58719 L63.3918018,742.454322 L36.9434496,807.845699 L18.8570358,869.717476 L9.55267192,927.035632 L0.324689675,1040.95476 L0.0151338408,1100.54236 L10.2251206,1152.88935 L30.3086363,1195.45859 L31.0144727,1196.96173 L96.0953929,1308.81773 L129.158904,1345.9909 M1172.89322,19.5789751 L1041.07649,26.8399625 M129.158904,1345.9909 L172.831336,1372.74526 L288.369366,1429.61886 L340.345264,1444.87865 L401.13122,1448.99754 L469.791196,1441.65379 M129.158904,1345.9909 L62.2864909,1231.82125 M469.791196,1441.65379 L545.185239,1422.76387 M469.791196,1441.65379 L361.176407,1384.12932 L439.860095,1363.8689 M1415.71029,609.370196 L1433.25425,504.624625 M1433.24688,504.631994 L1409.09906,582.687056 M1409.08187,582.699336 L1394.64576,677.65241 M1311.69953,565.739921 L1349.29828,479.083575 L1409.10889,582.669863 L1373.72126,665.470122 M1390.36111,255.501751 L1388.77402,322.592754 L1269.81368,246.396965 M1272.16483,182.503075 L1269.80631,246.401877 L1121.53152,225.677742 M988.272649,221.073525 L985.218856,266.185814 L898.297544,356.071941 L900.926312,321.659434 M1390.35128,255.514032 L1272.15992,182.510689 M1263.13858,127.172401 L1272.155,182.510935 L1124.49441,169.817531 M1117.54169,121.357815 L1124.49933,169.814093 L988.28002,221.062472 M983.386089,181.810208 L988.275106,221.0777 L900.931225,321.664346 M897.589988,291.540201 L900.948423,321.634872 L894.319997,373.689592 M1446.98772,368.180545 L1390.339,255.523856 L1380.05241,197.35687 M1380.07452,197.335748 L1263.15577,127.161103 M1243.18451,81.196545 L1263.15823,127.156682 L1117.55643,121.34578 M1100.978,81.0491786 L1117.54661,121.361499 L983.395917,181.798418 M970.772918,148.967889 L983.408201,181.785647 L897.592444,291.545113 M888.357362,266.252129 L897.575247,291.554937 L884.043235,410.143123 M1436.81414,312.041321 L1380.07206,197.346554 L1358.36385,148.960521 L1243.17714,81.2117728 M1212.85049,45.2032878 L1243.18451,81.1992467 L1100.98782,81.0361612 M1075.28732,49.4096157 L1100.98291,81.0423015 L970.768004,148.974275 M950.735319,123.070212 L970.770461,148.969363 L889.585758,264.508293 L888.372103,266.242304 M873.525707,246.114512 L888.377016,266.237392 L875.911252,400.431679 L864.587896,384.604529 M875.901425,400.436591 L881.701912,416.791804 M1325.88014,110.957923 L1212.84558,45.2059895 M1041.08877,26.8259627 L1075.29469,49.4002825 L950.74269,123.065791 M923.769567,104.439662 L950.725492,123.083229 L873.510966,246.131705 M853.362812,231.452785 L873.520793,246.119424 L864.582983,384.609441 M849.139586,372.957672 L864.555958,384.62909 L881.593813,417.064431 M999.097276,13.5304692 L1041.0642,26.8524887 L923.759739,104.44875 M890.418611,93.2543082 L923.752369,104.44654 L853.335787,231.47096 M828.308444,222.427576 L853.365269,231.450083 L849.169067,372.935567 M829.966779,365.567248 L849.169067,372.928199 L878.085513,427.046048 M1124.25119,4.49909574 L999.116931,13.5115572 M851.382637,89.5858677 L950.209566,9.51068265 L999.092363,13.5307394 L890.423524,93.2567643 M851.387551,89.5826747 L890.425981,93.2535714 L829.219914,220.504199 L828.286333,222.447716 M798.829393,219.128043 L828.308444,222.432489 L829.966779,365.577072 M807.31024,362.632201 L829.937297,365.596721 L871.992668,442.165839 M807.364289,93.3694996 L851.394921,89.5753064 L798.817109,219.135657 M765.448955,221.556395 L798.809738,219.143516 L807.165289,360.092587 L807.31761,362.627289 M781.676069,364.05183 L807.332351,362.612552 L863.300537,460.891194 M895.334652,14.6623413 L807.356919,93.3771135 M759.132542,104.460294 L807.359376,93.374903 L765.451412,221.553939 M728.7887,229.578285 L765.444042,221.561308 L781.656414,364.073935 M753.445068,369.848242 L781.666241,364.061655 L851.480909,481.367754 M851.485823,481.372666 L853.610948,481.279334 M826.306158,486.213652 L851.493193,481.360385 L853.055713,482.261776 M835.457709,28.743445 L759.147283,104.445803 M707.539903,122.562535 L759.147283,104.451206 L728.810811,229.562074 M689.467739,243.019818 L728.786243,229.577793 L753.432784,369.860522 M723.147905,379.847051 L753.462265,369.843329 L826.308615,486.216108 M799.271615,494.832129 L826.311072,486.208739 L844.577323,497.214552 M771.568825,51.4179739 L708.59141,121.393183 L707.539903,122.564745 M653.402027,147.319842 L707.539903,122.556149 L689.48985,242.997713 M648.159232,261.592895 L689.487393,243.000169 L723.140534,379.844595 M648.159232,261.592895 L605.489663,285.009414 M648.159232,261.592895 L691.25137,393.871418 L723.142991,379.847051 L799.264245,494.837041 M770.831787,507.051258 L799.269158,494.824761 L833.610202,516.536741 M704.712135,82.1792331 L653.394657,147.32893 M597.615644,178.272678 L653.409398,147.315421 L648.16906,261.585527 M770.836701,507.058627 L691.261197,393.866506 L658.318069,411.663453 L605.49949,285.004501 L562.171501,312.829731 M741.451008,522.696656 L770.809676,507.085644 L819.124954,539.447302 M635.958802,120.465266 L597.593533,178.289625 M541.016062,214.91582 L597.605817,178.290853 L605.487206,285.021694 M624.859014,432.921054 L658.320526,411.660997 L741.482946,522.667183 M711.652573,541.409731 L741.453464,522.686832 L801.635049,565.732553 M566.352961,165.613168 L541.001321,214.917785 M562.169044,312.834643 L541.023432,214.903786 L484.517209,256.589806 L496.958405,216.878741 M518.865622,344.621572 L562.161674,312.839555 L624.841816,432.930879 M591.40733,457.288086 L624.8541,432.916142 L711.677141,541.387626 M681.888534,562.93996 L711.659944,541.412187 L780.34203,594.233212 M428.924912,302.703204 L484.500011,256.609455 L518.855795,344.636309 M476.264843,379.851963 L518.863166,344.628941 L591.395046,457.310191 M558.486312,484.403501 L591.380305,457.322472 L681.878707,562.949784 M652.647792,586.894366 L681.900818,562.925223 L756.238441,624.706124 M428.720998,273.512379 L428.922455,302.700748 M375.145728,352.46392 L428.951937,302.681099 L476.282041,379.837226 M435.032498,417.968279 L476.25993,379.859331 L558.496139,484.396133 M526.697876,513.7245 L558.515794,484.371572 L652.652706,586.886998 M624.357828,612.938918 L652.623224,586.911559 L729.250577,655.987096 M362.734013,334.595746 L375.143271,352.461464 M323.906867,405.20635 L375.12853,352.481113 L435.037411,417.963366 M395.814722,458.35158 L435.042325,417.955998 L526.690506,513.73678 M496.447392,544.899858 L526.683136,513.739236 L624.372569,612.93155 M597.546854,640.589764 L624.377483,612.91927 L699.847686,686.872634 M299.876981,399.294501 L323.919151,405.191613 M276.041182,460.056118 L323.919151,405.184245 L395.822092,458.336844 M359.174121,500.427139 L395.792611,458.366317 L496.430195,544.912139 M468.260614,577.37941 L496.437565,544.912139 L597.529656,640.611869 M669.191832,716.918184 L597.54194,640.589764 L572.58093,669.451471 L468.272898,577.357305 L442.609245,610.620354 M241.07857,466.640939 L276.026441,460.070855 M232.250333,516.256745 L276.036268,460.06103 L359.196232,500.402578 M468.285182,577.357305 L359.203602,500.402578 L325.781399,543.467948 L232.257212,516.254289 L193.231802,572.921576 M549.882626,699.059834 L572.576016,669.463752 L638.167458,745.345159 M187.237721,535.650162 L232.228467,516.27885 M296.061583,586.886998 L325.766659,543.480229 L442.606788,610.632634 M419.864262,644.173224 L442.596961,610.642459 L549.877712,699.069658 M529.832743,728.908895 L549.882626,699.054922 L607.091492,770.70937 M139.211607,605.283235 L193.230328,572.916664 M159.599544,629.210623 L193.225415,572.928945 L296.07141,586.882085 M270.557621,629.964648 L296.046842,586.901734 L419.859348,644.178136 M400.435948,677.428905 L419.861805,644.17568 L529.825373,728.926088 M512.745753,758.556556 L529.820459,728.926088 L577.487144,793.280988 M97.6891141,674.577365 L159.601018,629.203255 M131.921567,684.232319 L159.591928,629.21308 L270.572362,629.947455 M249.711738,671.998453 L270.562535,629.95728 L400.435948,677.426449 M384.668255,709.851966 L400.460516,677.401887 L512.775234,758.529539 M498.963148,787.455104 L512.770321,758.529539 L550.28554,812.804578 M63.3770611,742.469059 L131.907072,684.249512 M110.711342,737.109835 L131.92992,684.222495 L249.728936,671.973892 M233.869604,712.322809 L249.714195,671.988629 L384.6486,709.864246 M233.869604,712.322809 L223.329474,750.289302 M233.869604,712.322809 L372.772466,740.970834 M372.78475,740.963466 L384.658428,709.856878 L498.963148,787.460016 M488.654447,815.201738 L498.955777,787.460016 L525.560381,828.395942 M36.938536,807.850612 L110.698321,737.124571 M96.3506537,787.022829 L110.70176,737.124571 L233.87329,712.322809 M365.053225,770.210781 L372.794577,740.958553 L488.674101,815.196826 M482.033392,841.317518 L488.63725,815.218931 L504.734153,841.327342 M18.846963,869.734669 L96.3418092,787.03511 M89.1716608,833.094473 L96.3457401,787.032654 L223.328983,750.299126 M218.328919,785.242152 L223.332422,750.289302 L363.190976,769.960258 L365.033571,770.223061 M361.576864,797.129707 L365.028657,770.235342 L482.043219,841.317518 M480.576514,854.170323 L482.060416,841.297869 L487.526779,850.550022 M9.32799826,978.812811 L9.54439253,927.043 L89.1696953,833.089561 M89.3920351,874.536357 L89.162325,833.09693 L218.315898,785.256889 M219.01117,816.569789 L218.338746,785.234784 L361.591604,797.107602 M362.525186,821.189726 L361.586691,797.114971 L469.776455,859.804631 M0,1100.55464 L9.32114381,978.815267 M18.3730478,1024.07148 L9.33180629,978.802987 L89.4030906,874.519164 M97.1292111,910.572351 L89.3959659,874.526533 L218.992253,816.586982 M225.402515,843.729414 L219.004291,816.572246 L360.166665,821.11113 L362.522729,821.184813 M225.402515,843.729414 L237.489197,866.197876 M225.402515,843.729414 L367.871166,842.015052 M10.2285601,1152.8869 L18.3809095,1024.06903 M36.7044037,1061.96429 L18.365186,1024.08622 L97.1284741,910.582175 M112.393016,940.522112 L97.1564815,910.552702 L222.405229,845.29641 L225.417993,843.722046 M112.393016,940.522112 L134.987644,963.808457 M112.393016,940.522112 L36.7329025,1061.93482 L64.2300593,1091.63406 M112.393016,940.522112 L237.506394,866.190507 M377.577952,859.220077 L367.873622,842.024876 L432.167878,876.702643 M377.577952,859.220077 L391.522705,872.463403 M377.577952,859.220077 L419.213212,881.189949 L420.154163,881.686083 M62.2791206,1231.83107 L31.006611,1196.97401 L36.7090716,1061.95938 M62.2791206,1231.83107 L63.3370153,1232.46475 L103.720785,1256.65494 M62.2791206,1231.83107 L64.2059828,1091.65862 M255.136336,883.537987 L237.491653,866.197876 L377.577952,859.212709 M134.983222,963.803545 L164.671592,979.891042 M134.983222,963.803545 L64.2261285,1091.6316 L100.60852,1112.46675 L103.738965,1256.62792 L154.851793,1270.73825 M134.983222,963.803545 L255.146163,883.525707 M278.109801,895.373964 L255.146163,883.533075 L391.534989,872.451123 L409.508882,881.465033 L416.898913,883.029573 M226.597499,1388.35136 L172.834776,1372.75018 L103.732332,1256.64757 M145.392159,1123.89993 L100.60115,1112.48149 L164.663484,979.905779 M201.023519,988.398995 L164.65464,979.915603 L278.092603,895.391157 M306.031246,901.462652 L278.08769,895.386245 L408.906968,881.538717 L409.486771,881.47977 M226.581284,1388.36364 L154.828945,1270.77018 M226.581284,1388.36364 L340.330524,1444.89339 M226.581284,1388.36364 L289.68375,1392.27131 M214.921839,1273.64628 L154.84737,1270.74562 L145.393142,1123.89256 M145.393142,1123.89256 L197.951546,1125.51114 M145.393142,1123.89256 L201.034329,988.384258 M243.518165,989.017933 L201.013201,988.403907 L306.026332,901.472476 M243.537819,989.000741 L338.534608,901.583001 L306.04353,901.455283 L390.667742,891.051217 M289.69849,1392.26149 L214.915697,1273.66347 M283.008645,1265.06465 L214.900711,1273.66839 L197.929435,1125.53078 M257.448177,1117.11862 L197.944176,1125.52096 L243.530449,989.005653 L290.059639,981.833822 L291.496862,981.615229 M401.128763,1449 L289.693577,1392.25657 L361.17395,1384.13177 M361.17395,1384.12686 L283.020929,1265.05237 M358.053823,1244.86563 L283.03567,1265.04254 L257.462918,1117.10388 M322.904496,1098.67817 L257.440807,1117.12599 L291.489492,981.620141 M344.126268,966.237546 L291.501776,981.612773 L375.042542,895.700626 M439.847811,1363.87626 L358.029256,1244.88528 M439.847811,1363.87626 L545.175411,1422.7737 L625.971941,1392.48499 M439.847811,1363.87626 L524.339356,1331.64232 M438.656266,1213.28747 L358.046453,1244.86563 L322.919236,1098.65852 M393.18104,1070.37646 L322.904496,1098.67326 L344.113984,966.242459 M400.497368,943.051902 L344.133638,966.225266 L405.499397,894.833621 L407.484485,892.529793 L414.459319,884.412361 L414.965418,883.827808 M644.803254,1406.6248 L545.180325,1422.76633 M524.336899,1331.64478 L438.639069,1213.31203 M524.336899,1331.64478 L625.969484,1392.4899 L710.682141,1351.21258 M524.336899,1331.64478 L613.076238,1287.86714 M523.361552,1170.75507 L438.646439,1213.30712 L393.185954,1070.38137 M467.002736,1032.61137 L393.198238,1070.36418 L400.492454,943.056814 M459.57831,912.419343 L400.499825,943.04699 L457.580938,866.146298 M715.357416,1380.28551 L625.979311,1392.48254 M613.088522,1287.84749 L523.366466,1170.74279 M613.088522,1287.84749 L710.691968,1351.19293 L797.699268,1299.59013 M613.088522,1287.84749 L704.368184,1233.22123 L610.572767,1117.90457 M610.575223,1117.90212 L523.368923,1170.73788 L466.995366,1032.61137 M542.920076,986.041132 L466.983082,1032.62365 L459.553742,912.441447 M520.265994,874.865475 L459.561112,912.436535 L502.129953,842.94346 M789.166828,1344.43373 L710.706708,1351.18556 M698.54313,1055.74052 L610.567853,1117.91685 L542.927446,986.043589 M619.532688,931.439431 L542.929903,986.031308 L539.571468,969.545922 L539.507592,969.243821 L520.265994,874.860563 M581.445037,831.011695 L520.268451,874.858107 L547.833661,814.565607 M864.779526,1299.72031 L797.686984,1299.60241 M885.283915,1238.57063 L797.701725,1299.59013 L704.373098,1233.22368 L796.392255,1168.72633 M796.375057,1168.74352 L698.533302,1055.74543 M796.375057,1168.74352 L885.269174,1238.58782 L971.672104,1169.30843 M796.375057,1168.74352 L887.269003,1095.59085 M785.511121,985.387808 L698.538216,1055.73561 L619.525318,931.451711 M695.297707,869.85993 L619.547429,931.432062 L581.457321,831.004327 M641.91161,781.700447 L581.43521,831.023976 L593.807616,781.55308 M940.817249,1246.86244 L885.288828,1238.57063 M887.288657,1095.57365 L785.525862,985.38044 M887.288657,1095.57365 L971.691758,1169.28878 L1055.16619,1093.10036 M887.288657,1095.57365 L975.197601,1015.21231 M869.712765,908.256242 L785.503751,985.395177 L695.268225,869.884492 M768.687007,802.506124 L695.285423,869.874667 L641.923894,781.695534 M700.525761,727.828208 L641.91898,781.697991 L639.233706,744.475698 M1015.70519,1186.89415 L971.677017,1169.30106 M975.19023,1015.21476 L869.727506,908.243962 M975.19023,1015.21476 L1055.15636,1093.10281 L1133.99729,1011.52815 M975.19023,1015.21476 L1058.30597,929.270689 M949.450417,825.880889 L869.722592,908.256242 L768.67718,802.513492 M838.26828,730.669924 L768.689464,802.503668 L700.533131,727.823296 M683.229943,704.028537 L700.523304,727.833121 L756.127885,670.463387 L838.258453,730.682204 L902.638696,655.810256 M1088.0307,1120.92313 L1055.17847,1093.09053 M1058.30843,929.278057 L949.457787,825.875977 M1023.09031,739.936813 L949.460244,825.873521 L838.265823,730.67238 M807.671388,610.662108 L756.147539,670.43637 L724.995413,660.933694 M1156.27548,1050.3027 L1134.00957,1011.52815 M1206.62744,926.230029 L1134.01203,1011.51832 L1058.32071,929.260864 L1134.95052,839.492631 M1134.93824,839.497543 L1023.08785,739.924533 M1089.16328,652.177675 L1023.09031,739.931901 L902.643609,655.795519 M960.567402,579.381136 L903.702487,654.402907 L902.65098,655.793063 L807.661561,610.671932 M854.102306,549.684354 L807.63945,610.696493 L763.677608,616.087647 M1219.10549,976.410739 L1206.5955,926.257046 M1203.55153,747.7546 L1134.93332,839.504911 L1206.60778,926.244766 L1271.56046,838.967024 L1275.35866,900.69389 M1203.55399,747.752144 L1089.15837,652.177675 M1203.55399,747.752144 L1271.56292,838.964568 L1327.60481,751.46332 M1203.55399,747.752144 L1262.83885,655.893764 M1146.39426,564.401343 L1089.15346,652.185043 L960.552661,579.390961 M1010.92182,502.942192 L985.688104,541.247628 L960.557575,579.383592 L854.11459,549.662249 M894.671318,488.569058 L854.129331,549.645056 L798.662331,570.205123 M1262.83639,655.901132 L1146.39917,564.403799 M1193.77596,478.302533 L1146.41146,564.384151 L1010.9341,502.932368 M1010.9341,502.932368 L1052.82241,427.964632 M1010.9341,502.932368 L913.062866,490.848324 L912.640297,490.796746 L894.668861,488.576426 M928.540657,428.603219 L894.661491,488.578882 L829.224827,524.27102 M1323.90979,824.684765 L1327.59744,751.468233 M1373.72126,665.477491 L1327.61709,751.460864 L1262.85113,655.888851 L1311.69953,565.744834 M1363.90391,749.864395 L1373.70406,665.492227 L1311.68234,565.75957 L1193.76122,478.324638 L1052.80521,427.98428 L928.528373,428.622868 L884.883458,458.518596 L884.22258,458.970519 L854.846715,479.095855 M1388.75928,322.605035 L1445.88216,432.712285 L1433.24196,504.629537 L1375.06512,397.558034 L1388.75928,322.605035 Z" id="Shape"></path>
                    </g>
                </g>
            </g>
        </g>
    </g>
</svg>