<?xml version="1.0" encoding="UTF-8"?>
<svg width="18px" height="21px" viewBox="0 0 18 21" version="1.1" xmlns="http://www.w3.org/2000/svg" xmlns:xlink="http://www.w3.org/1999/xlink">
    <title>EE1D908B-5C89-4AF3-B430-8E39B8A46524</title>
    <g id="Page-1" stroke="none" stroke-width="1" fill="none" fill-rule="evenodd">
        <g id="Delta-VDP" transform="translate(-1112, -2284)" fill="#238EC2" fill-rule="nonzero">
            <g id="Vehicle-Stats" transform="translate(960, 2119)">
                <g id="Group-2-Copy-2" transform="translate(24, 161)">
                    <g id="content_copy---material" transform="translate(128, 4)">
                        <path d="M15.554,18.348 L15.554,5.5 L5.5,5.5 L5.5,18.348 L15.554,18.348 Z M15.554,3.696 C16.0526667,3.696 16.4853333,3.872 16.852,4.224 C17.2186667,4.576 17.402,5.00133333 17.402,5.5 L17.402,18.348 C17.402,18.8466667 17.2186667,19.2793333 16.852,19.646 C16.4853333,20.0126667 16.0526667,20.196 15.554,20.196 L5.5,20.196 C5.00133333,20.196 4.56866667,20.0126667 4.202,19.646 C3.83533333,19.2793333 3.652,18.8466667 3.652,18.348 L3.652,5.5 C3.652,5.00133333 3.83533333,4.576 4.202,4.224 C4.56866667,3.872 5.00133333,3.696 5.5,3.696 L15.554,3.696 Z M12.804,0 L12.804,1.848 L1.804,1.848 L1.804,14.696 L0,14.696 L0,1.848 C0,1.34933333 0.176,0.916666667 0.528,0.55 C0.88,0.183333333 1.30533333,0 1.804,0 L12.804,0 Z" id="Shape"></path>
                    </g>
                </g>
            </g>
        </g>
    </g>
</svg>