<?xml version="1.0" encoding="UTF-8"?>
<svg width="143px" height="54px" viewBox="0 0 143 54" version="1.1" xmlns="http://www.w3.org/2000/svg" xmlns:xlink="http://www.w3.org/1999/xlink">
    <title>835011A1-385D-426E-B3AA-818D8429B0EB</title>
    <g id="Page-1" stroke="none" stroke-width="1" fill="none" fill-rule="evenodd">
        <g id="Home" transform="translate(-60, -34)" fill-rule="nonzero">
            <g id="Logo" transform="translate(60, 34)">
                <g id="Group-2-Copy" fill="#238EC2">
                    <path d="M77.9243103,3.646786 C77.1879321,3.42798909 76.4018694,3.35261408 75.566122,3.42066096 C74.8789055,3.38611408 74.1733841,3.35261408 73.4495579,3.32016095 C73.0730009,3.30445782 72.8643255,3.10031717 72.5097344,3.07048122 C71.4103971,2.97940308 70.3100139,2.89251245 69.2085846,2.80980931 C69.160469,2.80562181 69.1275203,2.82655931 69.1097384,2.87262182 L66.4863913,9.60612283 C66.4543169,9.68812436 66.3702712,9.73702941 66.2839919,9.72389628 L47.78406,7.02766932 C47.7579103,7.02348182 47.7542493,7.01196619 47.7730771,6.99312244 L47.8075949,6.95857556 C47.8243307,6.94182555 47.8211928,6.93292712 47.7981809,6.93188024 C45.782032,6.79997397 44.0796805,6.41995829 41.5190929,6.08077074 C36.1322357,5.36470813 30.7417176,5.26787218 25.3475385,5.79026288 C21.8596793,6.12945043 17.9811421,6.87848961 14.8431671,8.5053336 C12.6387396,9.64852127 11.6079148,11.7181935 13.093746,14.040686 C13.1198958,14.0815141 13.1083899,14.0998344 13.0592283,14.0956469 C8.96730883,13.7046391 2.88591321,12.1154826 0.769349045,8.17399761 C0.743199253,8.12479448 0.756613757,8.09391166 0.811711708,8.08134916 C7.47990866,6.65655207 14.1800084,5.42071595 20.9120108,4.37384079 C29.2935421,3.07205154 37.9449393,1.82993416 46.1256402,1.17982469 C46.402828,1.15784031 46.6423601,1.12748093 46.8442365,1.08874655 C48.0350981,0.859480892 49.30284,0.856340266 50.5140983,0.872043394 C50.5415045,0.872224667 50.5676733,0.860638284 50.5859743,0.840219972 C50.6042753,0.819801661 50.6129522,0.792510746 50.6098066,0.765262128 C50.6077146,0.74746525 50.6077146,0.730715248 50.6098066,0.71501212 C50.6139905,0.675230864 50.6359564,0.654816799 50.675704,0.653769924 C51.5219113,0.615035543 52.3675956,0.586769914 53.2127569,0.568973036 C53.700712,0.559551159 54.0851139,0.334996438 54.5715001,0.3302855 C56.9030155,0.303066746 59.232962,0.229262047 61.5613395,0.108871404 C64.7055904,-0.0544411201 67.8702383,0.0130823275 71.0176272,0.0177932658 C71.5306861,0.0177932658 71.9119501,0.245488612 72.3904913,0.247058925 C73.3648326,0.250199551 75.4704138,0.176394852 75.9364031,0.521863654 C75.977141,0.552442855 76.0266897,0.568973036 76.077612,0.568973036 C76.8411859,0.573160537 77.3725497,0.610324605 77.6717033,0.68046524 C78.46718,0.868902768 79.5199706,0.959980907 80.0722542,1.04634811 C90.7084206,2.68261398 100.583628,5.67563005 110.143469,10.6221152 C110.385093,10.7466933 110.642407,10.8210214 110.915411,10.8450996 C118.424585,11.49992 125.210456,13.6622406 132.34778,16.5531864 C135.998814,18.032421 140.868952,20.2497025 142.982378,23.621164 C143.007448,23.6606488 143.005631,23.7115085 142.977808,23.749101 C142.949986,23.7866935 142.901904,23.8032536 142.856859,23.7907578 C137.390506,22.3240857 131.837859,21.3379293 126.25854,20.5606245 C125.872569,20.5056635 125.238698,20.4664057 124.736622,20.3831791 C124.641437,20.367476 124.63673,20.3371166 124.722501,20.292101 C124.902412,20.1989291 125.068724,20.1423978 125.221439,20.1225072 C129.098407,19.6074446 133.193465,19.9324994 137.07514,20.5402104 C137.542698,20.6134917 137.561526,20.5512026 137.131623,20.3533432 C132.423615,18.1863116 127.495948,16.300366 122.348623,14.6955064 C117.880146,13.3010687 113.248495,12.5331858 108.568206,12.3447482 C108.337564,12.3353264 107.808816,12.3164826 107.590726,12.2112717 C101.297517,9.15701339 94.7972021,6.6806302 87.8811051,5.30032531 C84.4377005,4.6135752 81.1187689,4.06239543 77.9243103,3.646786 Z" id="Path"></path>
                    <path d="M87.1601751,27.3142412 C86.7307569,27.1388611 86.2537998,27.0716496 85.7293036,27.1126066 L83.3439953,27.0023377 C83.3224126,27.0013215 83.3018554,26.9947964 83.284441,26.9834345 C83.2311555,26.9477283 83.2149609,26.9135975 83.2358572,26.8810419 C83.253619,26.852687 83.2457829,26.8374594 83.2123489,26.8353591 C82.4078428,26.7849504 81.6033367,26.7445185 80.7988307,26.7140633 C80.5402394,26.7046116 80.2048544,26.5077029 79.9149188,26.4746222 C69.8115763,25.3351768 59.7280853,24.1999321 49.6644457,23.0688882 C49.5643037,23.0578402 49.4749294,23.0022015 49.4215266,22.9176622 L42.6291968,12.3743793 C42.6166983,12.3542809 42.6152836,12.3291568 42.6254463,12.3077693 C42.635609,12.2863819 42.6559398,12.271697 42.6793478,12.2688362 L51.172111,11.3016203 C51.2170379,11.2963694 51.2551736,11.2774661 51.286518,11.2449106 C51.3105487,11.2186561 51.3387586,11.1945019 51.3711478,11.1724481 C51.3951786,11.1556453 51.4239109,11.1456685 51.4573449,11.142518 C51.9504967,11.1068119 52.4394692,11.0459014 52.9242625,10.9597867 C52.9754583,10.9503351 53.0198629,10.9634623 53.0574762,10.9991684 C53.1118064,11.0516774 53.1640471,11.078457 53.2141981,11.0795072 C53.2625491,11.0827637 53.3009567,11.0468131 53.3013761,10.9979061 C53.3017956,10.9489991 53.2640785,10.9044446 53.2157653,10.8967759 C52.3365551,10.7360983 51.5780208,10.5045336 50.6439579,10.3485819 C50.1722248,10.2698184 49.6534751,10.063458 49.2632375,9.96736649 C46.7347898,9.34671006 44.19067,8.80376695 41.6308779,8.33853717 C41.6282813,8.33853717 41.6261763,8.33642135 41.6261763,8.33381136 C41.6261763,8.33120137 41.6282813,8.32908555 41.6308779,8.32908555 L41.6841634,8.31175758 C41.6869629,8.31147618 41.6894005,8.30971494 41.6905578,8.30713729 C41.6917152,8.30455964 41.6914165,8.3015572 41.6897742,8.29926094 C41.688132,8.29696469 41.6853957,8.29572348 41.6825962,8.29600488 C41.1894444,8.24979695 40.6989046,8.18888651 40.2109769,8.11327354 C40.1670948,8.10592228 40.1341832,8.09016958 40.1122421,8.06601544 C40.0976147,8.05026274 40.085077,8.03293477 40.0746288,8.01403152 C40.0558222,7.98042576 40.0270898,7.9625727 39.9884317,7.96047234 C39.4696821,7.9258164 37.8319375,7.93526802 37.4808804,7.65486993 C37.4411441,7.62310968 37.393549,7.60441376 37.3445322,7.60131075 C36.6706278,7.55562792 36.0343366,7.34139118 35.3902094,7.26420294 C34.6828709,7.18018853 33.9917271,7.0132099 33.3167778,6.76326704 C33.2992066,6.75801314 33.2883573,6.74034007 33.2910053,6.72219814 C33.2947748,6.70405622 33.3110194,6.6912246 33.3293156,6.69230769 L35.644099,6.74278853 C35.6932052,6.74383871 35.7308184,6.7653674 35.7569388,6.8073746 C35.7820143,6.84728145 35.8154483,6.86881014 35.8572408,6.87196068 C36.7965278,6.94757364 37.7368596,7.00900918 38.6782361,7.05626728 C38.7388353,7.05941782 38.782195,7.08147161 38.8083154,7.12242863 C38.8344357,7.16443583 38.872049,7.18753979 38.9211552,7.19174051 C39.9753716,7.28625672 41.0306328,7.33193956 42.0869388,7.32878902 C42.2990359,7.32878902 42.4907591,7.38969946 42.6621084,7.51152035 C42.7009599,7.53925384 42.7472218,7.5551184 42.7953221,7.55720319 L45.3702639,7.69740223 C45.4266838,7.69950259 45.4695212,7.72575709 45.4987759,7.77616573 C45.5081793,7.79191844 45.5165378,7.80767114 45.5238514,7.82342384 C45.5384788,7.85282888 45.5619871,7.86858158 45.5943763,7.87068194 L47.404515,8.00615517 C47.4515316,8.00930571 47.4901897,8.02873405 47.5204892,8.06444017 C47.5445199,8.09174485 47.5711627,8.1153739 47.6004174,8.13532732 C47.6317618,8.15528075 47.6678079,8.16630764 47.7085556,8.168408 C48.1865576,8.18731124 49.7412394,8.19203705 50.0907294,8.43777919 C50.1325219,8.46718423 50.1784937,8.48293693 50.2286447,8.48503729 C50.8220986,8.50394054 51.4118956,8.55592445 51.9980357,8.64098904 C52.1719971,8.66461809 52.3255846,8.78591389 52.5324576,8.80166659 C53.4759238,8.87255375 54.6842501,9.11357008 55.3189741,9.20651101 C59.964213,9.88282699 64.6042279,10.5995749 69.2390187,11.3567547 C69.4249955,11.38721 69.8335174,11.4229161 70.4645845,11.4638731 C70.6698903,11.4764753 70.7372807,11.6245507 70.9143765,11.6418786 C71.5726088,11.7033142 72.1038962,11.7348196 72.8044434,11.9049488 C73.3059537,12.0267696 73.8173897,12.0803288 74.3387514,12.0656263 C74.3930817,12.0645761 74.4343518,12.087155 74.4625617,12.1333629 C74.5127128,12.2184275 74.5602518,12.2630602 74.6051787,12.2672609 C75.1411678,12.3218702 75.6771569,12.3717538 76.2131461,12.4169115 C76.2685211,12.4221624 76.3212842,12.4578686 76.3714352,12.5240299 C76.4048693,12.5691877 76.4492738,12.5938669 76.5046489,12.5980676 L78.1126162,12.7240892 C78.1659017,12.7282899 78.2092614,12.7524441 78.2426955,12.7965516 C78.2865776,12.8553617 78.3283701,12.886342 78.368073,12.8894926 C78.9228688,12.9409514 79.4771421,12.9924102 80.030893,13.0438691 C80.06712,13.0471798 80.094558,13.0782062 80.0935818,13.1147562 C80.092537,13.1336595 80.0920146,13.1525627 80.0920146,13.1714659 C80.0909698,13.2040215 80.106642,13.2208244 80.1390312,13.2218746 C81.1733961,13.2848854 82.4130669,13.5542566 83.1700339,13.6708266 C89.2309946,14.6159887 95.2830744,15.6178605 101.326273,16.676442 C101.404634,16.6900943 101.406201,16.7105728 101.330975,16.7378775 C101.266196,16.7620317 101.186268,16.7678077 101.09119,16.7552055 C97.6600241,16.297327 92.2076671,15.5837296 84.7341191,14.6144134 C83.8470728,14.4994187 82.7656913,14.4631874 81.7830446,14.3261389 C81.7621483,14.3229884 81.7308039,14.3061855 81.6890114,14.2757303 C81.6816977,14.2704794 81.6749064,14.2647034 81.6686375,14.2584023 C81.6571446,14.2468503 81.6414724,14.2400242 81.621621,14.2379238 C80.8077116,14.1875152 79.9927574,14.1486585 79.1767584,14.1213538 C78.7363696,14.1056011 78.4088207,13.8850633 77.9982092,13.8693106 C77.5578205,13.8535579 76.2131461,13.8661601 75.8072362,13.6015147 C75.7623092,13.5721096 75.713203,13.5574071 75.6599175,13.5574071 C74.399873,13.5521562 73.5039457,13.5222261 72.9721359,13.4676167 C72.7260824,13.4424124 72.47376,13.2565305 72.1493456,13.2470789 C71.4952926,13.2260753 70.8422844,13.1940448 70.1903211,13.1509874 C70.0722572,13.142586 69.9740447,13.0984784 69.8956838,13.0186647 C69.8601601,12.9840088 69.8178452,12.9656306 69.768739,12.9635303 C68.9402022,12.9215231 68.1142775,12.8532614 67.2909648,12.7587452 C67.2658892,12.7555946 67.2366345,12.740367 67.2032005,12.7130623 C67.1634976,12.6805067 67.1180482,12.6610784 67.0668523,12.6547773 C64.0619699,12.3302717 61.5962111,12.0966066 59.6695757,11.9537821 C59.2479937,11.9222767 58.6305091,11.9112498 58.1242972,12.0341209 C55.6115217,12.6421752 53.1024031,13.2570556 50.5969414,13.8787622 C50.5520144,13.889264 50.5415663,13.9144684 50.565597,13.9543752 C52.0199768,16.2805241 53.4701773,18.612449 54.9161986,20.9501499 C55.1418783,21.3140373 55.4709944,21.277806 55.8486943,21.3439674 C63.8665899,22.7260044 71.8855303,24.1054159 79.9055155,25.482202 C80.2393333,25.540487 81.4382563,25.4869278 81.8065529,25.8051324 C81.8328585,25.8275463 81.8665723,25.8403233 81.9021533,25.8413636 C82.2876893,25.8460894 83.2969787,25.8523905 83.6370654,26.0792294 C83.6809475,26.1086344 83.7290089,26.1259624 83.7812496,26.1312133 C84.2890288,26.1858227 84.7968079,26.2346561 85.3045871,26.2777134 C85.361007,26.2829643 85.4169045,26.3286472 85.4722796,26.4147619 C85.5015343,26.4609699 85.5428045,26.4830237 85.5960899,26.4809233 C86.2825321,26.4588695 86.973676,26.69516 87.55198,26.770773 C88.1694645,26.8511118 88.8308312,27.0228162 89.3589842,27.1110313 C91.4987614,27.4638919 93.636449,27.8283043 95.7720469,28.2042688 C95.7877191,28.2074194 95.7950328,28.2173961 95.793988,28.2341989 C95.793988,28.2373495 95.793988,28.2405 95.793988,28.2436506 C95.7929432,28.2531022 95.7882415,28.2573029 95.779883,28.2564103 L87.1601751,27.3142412 Z" id="Path"></path>
                    <path d="M38.6181382,26.7539599 C40.7896305,15.6191272 29.1149069,10.024225 19.7455239,14.2631574 C16.8874685,15.5565205 14.812032,18.1661514 13.8546228,21.1117209 C13.3459992,22.6753617 13.2672649,24.2939742 13.4798475,25.9049518 C13.481876,25.936456 13.4599626,25.9647074 13.4281863,25.9715549 C13.39641,25.9784025 13.36422,25.9618099 13.3522979,25.9324376 C13.010591,24.8589616 12.820054,23.9152799 12.8704439,22.7776702 C13.1365659,16.6467935 17.4638036,11.6458915 23.7609738,10.6197522 C33.4263977,9.04236851 41.2478642,16.5872407 38.9346501,26.0255842 C38.874812,26.2709211 38.7787562,26.5167669 38.6464825,26.7631218 C38.6424158,26.7683799 38.6353356,26.7705246 38.6289054,26.7684462 C38.6224753,26.7663677 38.6181382,26.7605325 38.6181382,26.7539599 Z" id="Path"></path>
                    <path d="M101.91404,18.6209957 C106.123075,12.4870136 115.553363,11.4718504 120.806649,17.0176213 C123.772834,20.149116 124.834702,24.8056592 123.543803,28.8478827 C123.534193,28.8785987 123.520313,28.9011238 123.502161,28.9154579 C123.490416,28.9256966 123.478671,28.9338875 123.466926,28.9400307 C123.434894,28.9543648 123.421547,28.9446381 123.426885,28.9108505 C123.518711,28.33339 123.58331,27.6207792 123.62068,26.773018 C123.859321,21.3455035 120.258898,17.0130139 114.776582,15.9164533 C108.945114,14.7492459 102.487417,17.5029339 100.752872,23.2790748 C100.227543,25.0314217 100.275591,27.0893926 100.523841,28.9461739 C100.528112,28.9809853 100.511562,28.998903 100.474191,29 C100.450701,29.0009507 100.435753,28.991224 100.429346,28.9707467 C99.3338438,25.572023 99.8703837,21.6004462 101.91404,18.6209957 Z" id="Path"></path>
                    <path d="M8.18704533,24.3226391 C8.25232919,24.3670051 8.28991687,24.399468 8.29980837,24.4200278 C8.34728754,24.5195808 8.32107508,24.5563721 8.22117099,24.5304018 C4.94510807,23.655526 1.7758733,21.4220769 0.329242257,17.9956154 C0.134379819,17.535724 0.0250788069,17.0568959 0.00133922055,16.5591311 C-0.0194329175,16.103027 0.207576877,15.6826321 0.256539774,15.2005577 C0.292149153,14.8499582 0.114102256,14.5577919 0.0324974276,14.2234238 C0.0260359915,14.1987365 0.0316246107,14.1721491 0.047294242,14.1530291 C0.0629638734,14.1339091 0.0865154721,14.1249398 0.109651083,14.1292813 L6.31013429,15.1778337 C6.51488822,15.2124608 6.52477971,15.281715 6.33980877,15.3855964 C5.21217842,16.0186234 3.75367758,17.2733154 3.92875703,18.7974496 C4.19137621,21.0747236 6.46740905,23.1572201 8.18704533,24.3226391 Z" id="Path"></path>
                    <path d="M139.669186,25.1998868 C139.658298,25.2270617 139.658718,25.2580901 139.670335,25.2848986 C139.681952,25.3117071 139.703617,25.3316446 139.729695,25.3395235 L141.423943,25.8606068 C141.496347,25.8821767 141.506173,25.9224784 141.453421,25.9815118 C139.42715,28.2122934 135.081373,28.3485243 132.442255,28.2242136 C132.423656,28.2221286 132.409058,28.2057777 132.407537,28.1853255 C132.406016,28.1648732 132.418004,28.1461403 132.436049,28.1407721 C133.962734,27.7712457 136.524276,27.301249 137.523448,25.828252 C137.597395,25.7208755 137.613366,25.5780373 137.565339,25.4536169 L137.267449,24.6822092 C137.250551,24.6372959 137.249995,24.5872704 137.265898,24.5425725 L137.990453,22.4684566 C138.036998,22.3356314 138.123882,22.2851124 138.251106,22.3168996 L140.530273,22.8890696 C140.549354,22.8942785 140.56537,22.9084605 140.574044,22.9278281 C140.582717,22.9471958 140.583165,22.9697765 140.575267,22.9895399 L139.669186,25.1998868 Z" id="Path"></path>
                </g>
                <g id="Delta-Exotics-Copy" transform="translate(5, 38)" fill="#FFFFFF">
                    <path d="M0.739512647,0.324324324 C0.211289328,0.324324324 0,0.518918919 0,1.05945946 L0,14.9405405 C0,15.4810811 0.211289328,15.6756757 0.739512647,15.6756757 L5.47239358,15.6756757 C9.36011721,15.6756757 11.5997841,13.5135135 11.5997841,9.96756757 L11.5997841,6.03243243 C11.5997841,2.48648649 9.36011721,0.324324324 5.47239358,0.324324324 L0.739512647,0.324324324 Z M8.95866749,9.98918919 C8.95866749,12.0432432 7.71206046,13.1459459 5.49352252,13.1459459 L2.66224553,13.1459459 L2.66224553,2.85405405 L5.49352252,2.85405405 C7.71206046,2.85405405 8.95866749,3.95675676 8.95866749,6.01081081 L8.95866749,9.98918919 Z" id="Shape"></path>
                    <path d="M14.1511027,0.324324324 C13.6228794,0.324324324 13.4115901,0.518918919 13.4115901,1.05945946 L13.4115901,14.9405405 C13.4115901,15.4810811 13.6228794,15.6756757 14.1511027,15.6756757 L22.7717073,15.6756757 C23.2999306,15.6756757 23.490091,15.4810811 23.490091,14.9405405 L23.490091,13.8810811 C23.490091,13.3405405 23.2999306,13.1459459 22.7717073,13.1459459 L16.0738356,13.1459459 L16.0738356,9.16756757 L21.5462292,9.16756757 C22.0744525,9.16756757 22.2646129,8.97297297 22.2646129,8.43243243 L22.2646129,7.37297297 C22.2646129,6.83243243 22.0744525,6.63783784 21.5462292,6.63783784 L16.0738356,6.63783784 L16.0738356,2.85405405 L22.539289,2.85405405 C23.0675123,2.85405405 23.2788017,2.65945946 23.2788017,2.11891892 L23.2788017,1.05945946 C23.2788017,0.518918919 23.0675123,0.324324324 22.539289,0.324324324 L14.1511027,0.324324324 Z" id="Path"></path>
                    <path d="M25.7244756,0.324324324 C25.1962523,0.324324324 24.984963,0.518918919 24.984963,1.05945946 L24.984963,14.9405405 C24.984963,15.4810811 25.1962523,15.6756757 25.7244756,15.6756757 L33.7112122,15.6756757 C34.2394355,15.6756757 34.4295959,15.4810811 34.4295959,14.9405405 L34.4295959,13.8810811 C34.4295959,13.3405405 34.2394355,13.1459459 33.7112122,13.1459459 L27.6472085,13.1459459 L27.6472085,1.05945946 C27.6472085,0.518918919 27.4570481,0.324324324 26.9288248,0.324324324 L25.7244756,0.324324324 Z" id="Path"></path>
                    <path d="M32.6706123,0.324324324 C32.142389,0.324324324 31.9522286,0.518918919 31.9522286,1.05945946 L31.9522286,2.11891892 C31.9522286,2.65945946 32.142389,2.85405405 32.6706123,2.85405405 L36.3047887,2.85405405 L36.3047887,14.9405405 C36.3047887,15.4810811 36.4949491,15.6756757 37.0231724,15.6756757 L38.2486505,15.6756757 C38.7768738,15.6756757 38.9670342,15.4810811 38.9670342,14.9405405 L38.9670342,2.85405405 L42.6012107,2.85405405 C43.129434,2.85405405 43.3195944,2.65945946 43.3195944,2.11891892 L43.3195944,1.05945946 C43.3195944,0.518918919 43.129434,0.324324324 42.6012107,0.324324324 L32.6706123,0.324324324 Z" id="Path"></path>
                    <path d="M49.9910549,0.886486486 C49.8220234,0.432432432 49.6107341,0.302702703 49.1036397,0.302702703 L47.9838063,0.302702703 C47.4767119,0.302702703 47.2865515,0.410810811 47.0963911,0.908108108 L41.8141579,14.9621622 C41.6451265,15.4378378 41.8141579,15.6756757 42.3001234,15.6756757 L43.2720543,15.6756757 C44.1383405,15.6756757 44.4130167,15.5459459 44.5820481,15.027027 L45.575108,12.2378378 L51.4066934,12.2378378 L52.3786243,15.027027 C52.5476558,15.5459459 52.8223319,15.6756757 53.6886181,15.6756757 L54.7873226,15.6756757 C55.2732881,15.6756757 55.4423196,15.4378378 55.2732881,14.9621622 L49.9910549,0.886486486 Z M50.6671808,10.0108108 L46.3146206,10.0108108 L47.9415484,5.42702703 C48.2584824,4.4972973 48.4063849,3.63243243 48.4063849,2.81081081 L48.5542875,2.81081081 L48.5754164,3.17837838 C48.6388032,3.67567568 48.8078347,4.67027027 49.0613819,5.44864865 L50.6671808,10.0108108 Z" id="Shape"></path>
                    <path d="M60.185765,0.324324324 C59.6575416,0.324324324 59.4462523,0.518918919 59.4462523,1.05945946 L59.4462523,14.9405405 C59.4462523,15.4810811 59.6575416,15.6756757 60.185765,15.6756757 L68.8063695,15.6756757 C69.3345928,15.6756757 69.5247532,15.4810811 69.5247532,14.9405405 L69.5247532,13.8810811 C69.5247532,13.3405405 69.3345928,13.1459459 68.8063695,13.1459459 L62.1084978,13.1459459 L62.1084978,9.16756757 L67.5808914,9.16756757 C68.1091147,9.16756757 68.2992751,8.97297297 68.2992751,8.43243243 L68.2992751,7.37297297 C68.2992751,6.83243243 68.1091147,6.63783784 67.5808914,6.63783784 L62.1084978,6.63783784 L62.1084978,2.85405405 L68.5739513,2.85405405 C69.1021746,2.85405405 69.3134639,2.65945946 69.3134639,2.11891892 L69.3134639,1.05945946 C69.3134639,0.518918919 69.1021746,0.324324324 68.5739513,0.324324324 L60.185765,0.324324324 Z" id="Path"></path>
                    <path d="M78.0344309,7.82702703 L82.5560225,1.01621622 C82.8306986,0.67027027 82.703925,0.324324324 82.2179596,0.324324324 L80.7600632,0.324324324 C79.9782927,0.324324324 79.8303902,0.410810811 79.4289405,0.92972973 L76.4075031,5.70810811 L73.3860657,0.92972973 C72.984616,0.410810811 72.8367134,0.324324324 71.9915561,0.324324324 L70.5759176,0.324324324 C70.0688233,0.324324324 69.9420497,0.67027027 70.2167258,1.01621622 L74.6960595,7.84864865 L70.0476943,14.9189189 C69.7730182,15.3297297 69.8786629,15.6756757 70.4068862,15.6756757 L71.7802668,15.6756757 C72.6254241,15.6756757 72.7733267,15.6108108 73.1747764,15.027027 L76.2807295,9.94594595 L79.5134562,15.027027 C79.8515191,15.6108108 80.0628085,15.6756757 80.9290947,15.6756757 L82.40812,15.6756757 C82.9152144,15.6756757 83.0631169,15.2864865 82.7461829,14.9189189 L78.0344309,7.82702703 Z" id="Path"></path>
                    <path d="M82.9310611,10.3567568 C82.9310611,13.8810811 85.1073411,16 88.9739358,16 C92.7982727,16 94.9956817,13.8810811 94.9956817,10.3567568 L94.9956817,5.64324324 C94.9956817,2.11891892 92.7982727,0 88.9739358,0 C85.1073411,0 82.9310611,2.11891892 82.9310611,5.64324324 L82.9310611,10.3567568 Z M92.3545651,10.3783784 C92.3545651,12.3675676 91.1502159,13.4702703 88.9739358,13.4702703 C86.7976558,13.4702703 85.5933066,12.3891892 85.5933066,10.3783784 L85.5933066,5.62162162 C85.5933066,3.61081081 86.7976558,2.52972973 88.9739358,2.52972973 C91.1502159,2.52972973 92.3545651,3.63243243 92.3545651,5.62162162 L92.3545651,10.3783784 Z" id="Shape"></path>
                    <path d="M96.1736197,0.324324324 C95.6453964,0.324324324 95.455236,0.518918919 95.455236,1.05945946 L95.455236,2.11891892 C95.455236,2.65945946 95.6453964,2.85405405 96.1736197,2.85405405 L99.8077961,2.85405405 L99.8077961,14.9405405 C99.8077961,15.4810811 99.9979565,15.6756757 100.52618,15.6756757 L101.751658,15.6756757 C102.279881,15.6756757 102.470042,15.4810811 102.470042,14.9405405 L102.470042,2.85405405 L106.104218,2.85405405 C106.632441,2.85405405 106.822602,2.65945946 106.822602,2.11891892 L106.822602,1.05945946 C106.822602,0.518918919 106.632441,0.324324324 106.104218,0.324324324 L96.1736197,0.324324324 Z" id="Path"></path>
                    <path d="M107.916024,14.9405405 C107.916024,15.4810811 108.127313,15.6756757 108.655537,15.6756757 L109.859886,15.6756757 C110.388109,15.6756757 110.57827,15.4810811 110.57827,14.9405405 L110.57827,1.05945946 C110.57827,0.518918919 110.388109,0.324324324 109.859886,0.324324324 L108.655537,0.324324324 C108.127313,0.324324324 107.916024,0.518918919 107.916024,1.05945946 L107.916024,14.9405405 Z" id="Path"></path>
                    <path d="M112.411205,10.3567568 C112.411205,13.8810811 114.587485,16 118.454079,16 C121.475517,16 123.39825,14.7891892 124.222278,12.3675676 C124.37018,11.9135135 124.222278,11.5891892 123.757441,11.4162162 L122.616479,11.0054054 C122.109385,10.8108108 121.919224,10.9189189 121.686806,11.4594595 C121.200841,12.8 120.123265,13.4702703 118.454079,13.4702703 C116.277799,13.4702703 115.07345,12.3675676 115.07345,10.3783784 L115.07345,5.6 C115.07345,3.61081081 116.277799,2.52972973 118.454079,2.52972973 C120.144394,2.52972973 121.221969,3.2 121.686806,4.51891892 C121.876966,5.03783784 122.088256,5.14594595 122.59535,4.97297297 L123.757441,4.56216216 C124.222278,4.38918919 124.37018,4.06486486 124.201149,3.61081081 C123.377121,1.21081081 121.454388,0 118.454079,0 C114.587485,0 112.411205,2.14054054 112.411205,5.62162162 L112.411205,10.3567568 Z" id="Path"></path>
                    <path d="M125.252313,4.73513514 C125.3157,6.33513514 125.759408,7.35135135 126.71021,7.97837838 C127.386336,8.43243243 127.830043,8.67027027 128.738587,8.86486486 C129.647131,9.05945946 130.048581,9.1027027 130.999383,9.21081081 C131.696638,9.27567568 132.267119,9.36216216 132.689698,9.47027027 C133.534855,9.68648649 134.337754,10.2702703 134.337754,11.2216216 C134.337754,12.7135135 133.217921,13.4702703 130.978254,13.4702703 C129.330197,13.4702703 128.231493,12.8 127.682141,11.4594595 C127.449722,10.9405405 127.259562,10.8324324 126.773597,11.0054054 L125.611505,11.4378378 C125.104411,11.6108108 124.977637,11.8486486 125.167798,12.3891892 C126.076342,14.8108108 127.787785,16 130.978254,16 C134.781462,16 137,14.0972973 137,11.1567568 C137,9.77297297 136.492906,8.69189189 135.837909,8.08648649 C135.182912,7.48108108 134.02082,7.04864865 133.175663,6.87567568 C132.393893,6.72432432 130.87261,6.55135135 130.217613,6.42162162 C129.097779,6.24864865 127.851172,5.72972973 127.977946,4.58378378 C127.977946,3.26486486 128.992134,2.59459459 131.041641,2.59459459 C132.64744,2.59459459 133.534855,3.2 134.126465,4.41081081 C134.380012,4.90810811 134.549044,4.97297297 135.035009,4.77837838 L136.197101,4.25945946 C136.683066,4.04324324 136.80984,3.71891892 136.59855,3.26486486 C135.563233,1.03783784 133.978563,0 131.041641,0 C127.344078,0 125.252313,1.9027027 125.252313,4.73513514 Z" id="Path"></path>
                </g>
            </g>
        </g>
    </g>
</svg>