<?xml version="1.0" encoding="UTF-8"?>
<svg width="458px" height="64px" viewBox="0 0 458 64" version="1.1" xmlns="http://www.w3.org/2000/svg" xmlns:xlink="http://www.w3.org/1999/xlink">
    <title>2C4228DA-215E-446C-B5BB-A1B6C9EE970D</title>
    <g id="Page-1" stroke="none" stroke-width="1" fill="none" fill-rule="evenodd">
        <g id="SRP-by-Sets" transform="translate(-142, -456)">
            <g id="Group-4-Copy" transform="translate(87, 408)">
                <g id="Dodge" transform="translate(55, 48)">
                    <path d="M393.078708,0 L338,64 L365.042254,64 L420.021541,0.0996884735 L393.078708,0 Z M431.156587,0 L376.077879,64 L403.120133,64 L458,0.0996884735 L431.156587,0 Z" id="Shape" fill="#D50000"></path>
                    <path d="M114.2861,15 C106.414608,15 78.9142036,15.7065421 78.9142036,28.4242991 C78.9142036,37.4074766 91.7676535,39.9308411 102.429042,41.1420561 C110.001617,41.9495327 116.378523,41.9495327 116.378523,41.9495327 C116.378523,41.9495327 122.356871,42.1514019 129.630529,41.7476636 C140.889752,41.1420561 155.13815,38.517757 155.13815,28.4242991 C155.13815,15.1009346 117.773471,15 116.378523,15 C116.179244,15.1009346 115.48177,15 114.2861,15 L114.2861,15 Z M40.4534933,15.4037383 L3.98556584,15.4037383 C3.98556584,15.4037383 2.29170036,15.3028037 1.2953089,16.1102804 C0.298917438,16.8168224 0.298917438,18.5327103 0.298917438,18.5327103 L0,38.6186916 C0,41.7476636 3.48737011,41.4448598 3.48737011,41.4448598 L41.7488022,41.4448598 C41.7488022,41.4448598 54.3033346,41.7476636 62.8723011,38.8205607 C68.4520933,36.9028037 71.3416285,33.1682243 71.3416285,28.5252336 C71.3416285,23.2766355 66.3596712,19.6429907 59.5842093,17.7252336 C51.1148819,15.3028037 40.4534933,15.4037383 40.4534933,15.4037383 L40.4534933,15.4037383 Z M203.164219,15.4037383 L166.696291,15.4037383 C166.696291,15.4037383 165.002426,15.3028037 164.006034,16.1102804 C163.009643,16.8168224 163.009643,18.5327103 163.009643,18.5327103 L162.710725,38.6186916 C162.710725,41.7476636 166.198096,41.4448598 166.198096,41.4448598 L204.459528,41.4448598 C204.459528,41.4448598 217.01406,41.7476636 225.583027,38.8205607 C231.162819,36.9028037 234.151993,33.1682243 234.151993,28.5252336 C234.151993,23.2766355 229.170036,19.6429907 222.394574,17.7252336 C213.825607,15.3028037 203.164219,15.4037383 203.164219,15.4037383 L203.164219,15.4037383 Z M312.368723,15.4037383 C312.069805,15.4037383 270.022086,15.4037383 270.022086,15.4037383 C270.022086,15.4037383 266.833633,15.4037383 262.748428,15.8074766 C254.37874,16.6149533 241.824207,19.1383178 241.824207,28.4242991 C241.824207,32.764486 244.115908,35.7925234 248.101474,37.7102804 C256.770079,41.646729 271.915229,41.3439252 271.915229,41.3439252 L309.678466,41.3439252 C312.966558,41.3439252 313.365114,39.3252336 313.365114,38.0130841 C313.365114,36.7009346 313.464753,31.3514019 313.464753,28.3233645 C313.464753,25.2953271 310.176662,25.4971963 310.176662,25.4971963 L276.598269,25.4971963 C275.103682,25.4971963 275.103682,26.7084112 275.103682,26.7084112 C275.103682,26.7084112 275.004043,28.3233645 275.004043,29.635514 C275.004043,31.0485981 276.398991,30.9476636 276.398991,30.9476636 L295.828625,30.9476636 C297.123933,30.9476636 297.223573,31.9570093 297.223573,31.9570093 L297.223573,34.2785047 C297.223573,35.4897196 295.928264,35.5906542 295.928264,35.5906542 L273.708734,35.5906542 C270.221364,35.5906542 258.264666,35.5906542 258.264666,28.1214953 C258.264666,20.6523364 272.513064,20.6523364 272.513064,20.6523364 L312.269084,20.6523364 C313.86331,20.6523364 313.664032,18.7345794 313.664032,18.7345794 L313.664032,16.3121495 C313.464753,15.5046729 312.66764,15.4037383 312.368723,15.4037383 L312.368723,15.4037383 Z M325.321812,15.5046729 C322.332637,15.5046729 321.336246,16.0093458 321.336246,18.7345794 C321.236607,20.9551402 321.037328,34.682243 321.037328,37.9121495 C321.037328,41.0411215 322.731194,41.5457944 324.823616,41.5457944 L385.703134,41.5457944 C387.098082,41.5457944 386.998443,40.435514 386.998443,40.2336449 L386.998443,37.2056075 C386.998443,35.9943925 385.304578,36.0953271 385.304578,36.0953271 L339.271292,36.0953271 C337.477788,36.0953271 337.577427,34.9850467 337.577427,34.9850467 C337.577427,34.9850467 337.577427,33.8747664 337.577427,32.764486 C337.577427,31.553271 338.673457,31.3514019 339.171653,31.3514019 L382.514682,31.3514019 C383.80999,31.3514019 383.80999,30.1401869 383.80999,30.1401869 L383.80999,27.1121495 C383.80999,25.8 382.215764,25.8 382.215764,25.8 L338.972375,25.8 C337.577427,25.8 337.477788,24.2859813 337.477788,24.2859813 L337.477788,22.671028 C337.477788,21.2579439 338.872736,21.1570093 338.872736,21.1570093 L384.607104,21.1570093 C386.002052,21.1570093 386.101691,20.1476636 386.101691,19.2392523 L386.101691,16.8168224 C386.101691,15.6056075 384.507464,15.7065421 384.507464,15.7065421 L325.321812,15.5046729 L325.321812,15.5046729 Z M116.478162,20.5514019 C120.264449,20.5514019 138.79733,20.8542056 138.79733,28.5252336 C138.79733,36.7009346 121.559758,36.2971963 116.478162,36.2971963 C111.396565,36.2971963 95.4543019,35.9943925 95.4543019,28.5252336 C95.4543019,20.3495327 112.691874,20.5514019 116.478162,20.5514019 Z M40.7524107,20.9551402 C40.7524107,20.9551402 45.8340072,21.1570093 49.819573,22.671028 C52.9083865,23.882243 55.0008086,26.0018692 55.0008086,28.5252336 C55.0008086,30.6448598 53.6058606,32.764486 51.2145211,33.8747664 C47.0296769,35.7925234 40.7524107,35.8934579 40.7524107,35.8934579 L17.2375723,35.8934579 C17.2375723,35.8934579 15.9422634,35.8934579 15.9422634,34.682243 C15.9422634,34.682243 16.1415417,22.3682243 16.1415417,22.1663551 C16.1415417,21.964486 16.1415417,20.9551402 17.5364897,20.9551402 C19.130716,20.9551402 40.7524107,20.9551402 40.7524107,20.9551402 L40.7524107,20.9551402 Z M203.463136,20.9551402 C203.463136,20.9551402 208.644372,21.1570093 212.530298,22.671028 C215.619112,23.882243 217.711534,26.0018692 217.711534,28.5252336 C217.711534,30.6448598 216.316586,32.764486 213.925247,33.8747664 C209.740402,35.7925234 203.463136,35.8934579 203.463136,35.8934579 L179.948298,35.8934579 C179.948298,35.8934579 178.652989,35.8934579 178.652989,34.682243 C178.652989,34.682243 178.852267,22.3682243 178.852267,22.1663551 C178.852267,21.964486 178.852267,20.9551402 180.247215,20.9551402 C181.841441,20.9551402 203.463136,20.9551402 203.463136,20.9551402 L203.463136,20.9551402 Z" id="Shape" fill="#FFFFFF" fill-rule="nonzero"></path>
                </g>
            </g>
        </g>
    </g>
</svg>