<?xml version="1.0" encoding="UTF-8"?>
<svg width="470px" height="104px" viewBox="0 0 470 104" version="1.1" xmlns="http://www.w3.org/2000/svg" xmlns:xlink="http://www.w3.org/1999/xlink">
    <title>7F2CC642-5ABD-434A-9FE4-CD6009563125</title>
    <g id="Page-1" stroke="none" stroke-width="1" fill="none" fill-rule="evenodd" opacity="0.150575184">
        <g id="Delta-VDP" transform="translate(-888, -229)" fill="#FFFFFF" fill-rule="nonzero">
            <g id="ferrari-text" transform="translate(888, 229)">
                <path d="M15.2944151,88.6825075 L15.9925572,15.1987116 C15.9925462,15.0844072 15.9475331,14.9748746 15.8676015,14.8946507 C15.7876699,14.8144267 15.6795006,14.7702168 15.5673252,14.7719246 L0.53188465,14.861104 C0.279509468,14.861104 0.0749189593,14.6557653 0.0749189593,14.4024673 L0.0749189593,0.382197274 C0.0749189593,0.127399091 0.201853873,0 0.455723701,0 L430.771429,0.15287891 C430.833143,0.152805951 430.892242,0.178488021 430.935278,0.224081192 C430.978314,0.269674363 431,0.331300694 431,0.394937183 L430.35889,13.7782117 C430.346197,14.0372565 430.2108,14.166779 429.952699,14.166779 L38.7710275,14.8165143 C38.6891186,14.81646 38.6106533,14.8502016 38.5533354,14.9101261 C38.4960176,14.9700505 38.4646765,15.0511088 38.4663837,15.1350121 C38.6610172,22.0697693 38.8810377,29.0108964 39.1264452,35.9583935 C39.2343399,38.9395323 38.8408417,45.4114061 44.0578666,43.7615879 C44.5591477,43.600059 44.933465,43.178022 45.0352655,42.6595857 C45.5049247,40.2835927 45.39703,37.2005347 48.5069354,36.7801177 C51.2825788,36.4064137 54.0730314,36.1898352 56.878293,36.1303823 C57.0898511,36.1261357 57.1956302,36.2301783 57.1956302,36.4425101 L57.1956302,63.2854986 C57.1957339,63.8058293 56.7809898,64.2305852 56.2626586,64.2409918 L46.6346454,64.4575703 C46.4357807,64.4618169 46.3046146,64.3662676 46.2411472,64.1709223 C45.8984229,63.0795368 45.5345428,61.4764315 45.1495069,59.3616066 C44.6608075,56.6671158 39.7293861,57.3996606 39.5262902,60.7884764 C38.9677766,70.0058007 39.2343399,79.4014837 39.2660736,88.6379178 C39.2660736,88.8544963 39.3718527,88.9691554 39.5834109,88.9818953 L54.3269012,89.7717697 C54.529997,89.7845096 54.6251982,89.8906755 54.6125047,90.0902674 L53.8762822,103.295183 C53.8635887,103.507515 53.7514629,103.615804 53.5399047,103.620051 C38.7858366,103.951289 24.0317684,104.065948 9.27770022,103.964028 C6.56975539,103.942795 3.86181056,103.809026 1.15386573,103.562721 C0.961577786,103.54832 0.800069986,103.409379 0.754020749,103.218744 C-0.255111817,99.0655334 0.0114515023,94.3262872 0.0939591964,90.0902674 C0.0939591964,89.8864289 0.195507128,89.7781397 0.39860299,89.7653998 L14.9770779,89.0137451 C15.188636,89.0052518 15.2944151,88.8948393 15.2944151,88.6825075 Z" id="Path"></path>
                <path d="M440.813886,13.4256789 C437.248395,12.5139096 430.53578,8.2305617 436.168132,3.7241911 C442.006546,-0.946166786 453.645907,-0.270539171 460.932997,0.70682505 C473.789996,2.43197129 472.353808,12.6910159 460.533362,14.4489596 C453.918575,15.4372563 447.345416,15.0961627 440.813886,13.4256789 Z" id="Path"></path>
                <path d="M176.903246,40.3843592 L164.485333,52.079935 C164.306689,52.2482469 164.219546,52.4523251 164.223903,52.6921696 C164.491868,67.6761399 164.158545,78.4943897 165.354587,86.3398299 C166.066983,90.972616 170.439395,88.5047423 170.811933,91.370253 C171.160506,94.1095298 171.21497,98.1679514 170.975326,103.545518 C170.966612,103.747492 170.859862,103.848479 170.655075,103.848479 L135.237879,104 C134.553804,104.004168 134.200874,103.67596 134.179088,103.015335 C134.05273,99.3082648 134.107195,95.378181 134.342482,91.225084 C134.538554,87.7473385 138.636465,89.6345361 140.688689,89.9059391 C140.897833,89.9353937 141.002405,89.84703 141.002405,89.6408478 L141.002405,39.740566 C141.002675,39.545556 140.844601,39.3845741 140.642939,39.3744875 L135.433951,39.1535781 C135.216093,39.1451625 135.063592,39.0441753 134.976449,38.8506166 C133.518978,35.5117285 134.113731,30.1720323 134.152945,26.5491178 C134.157302,26.3387279 134.266231,26.233533 134.479732,26.233533 L163.655293,26 C163.925751,26 164.148008,26.2060773 164.158545,26.4670658 L164.557226,34.8490003 C164.568331,35.0411786 164.685189,35.2128852 164.863457,35.2989637 C165.041725,35.3850421 165.254081,35.3722999 165.419944,35.2655723 C172.485083,30.6643447 178.687504,26.5428061 187.497687,26.4291956 C195.503973,26.3218967 200.79139,29.8943176 201.307714,37.8912386 C201.97436,48.2718774 202.159539,58.132853 201.863252,67.4741656 C201.854538,67.7224257 201.719466,67.8507635 201.458036,67.8591791 L178.439146,68.5345308 C178.343793,68.5379403 178.250948,68.504598 178.181069,68.4418506 C178.111191,68.3791032 178.070013,68.2920998 178.066609,68.2000108 L177.328069,40.5484633 C177.314998,40.1823848 177.17339,40.1276834 176.903246,40.3843592 Z" id="Path"></path>
                <path d="M215.370032,39.2610104 L211.581128,39.2610104 C210.003999,39.2610104 209.213327,38.4737694 209.20911,36.8992876 L209.183808,26.4041451 C209.183808,26.1809419 209.365054,26 209.588633,26 L237.945321,26 C238.100087,26 238.226524,26.1233815 238.229963,26.2778497 L238.464003,34.9543394 C238.468903,35.1082787 238.555053,35.248418 238.68972,35.3215122 C238.824387,35.3946064 238.986902,35.3894364 239.115517,35.3079663 C247.920449,29.8520078 253.170516,25.5516516 263.765532,26.378886 C267.295095,26.650421 270.710801,30.0856542 273.158724,32.2579339 C273.719575,32.7546956 274,33.3777526 274,34.1271049 L274,67.8542746 C274,68.0167283 273.935357,68.1725283 273.820292,68.2874004 C273.705227,68.4022725 273.549165,68.466807 273.386438,68.466807 L251.918091,68.466807 C251.677726,68.466807 251.563869,68.3489314 251.57652,68.1131801 C251.633448,67.0712435 251.367782,66.1429728 251.386758,65.2147021 C251.559652,58.3400259 251.435253,51.4737694 251.013561,44.6159326 C250.956632,43.6876619 250.678316,42.7025583 250.475903,41.7806023 C250.4253,41.5490609 250.281925,41.4522345 250.045777,41.4901231 C247.262609,41.951101 240.342641,50.1224093 238.375447,52.4967617 C238.240506,52.6609456 238.175143,52.8482837 238.17936,53.0587759 C238.272133,59.6598122 238.5631,70.4285946 239.052263,85.3651231 C239.145035,88.1646697 240.475474,89.5897021 243.043579,89.6402202 C243.268794,89.6445884 243.483221,89.7481692 243.63184,89.9243847 C245.548431,92.2419041 244.821012,100.545823 244.783059,103.671632 C244.783059,103.890544 244.673419,104 244.45414,104 L209.405197,103.968426 C209.12688,103.968426 208.991938,103.829501 209,103.551652 C209.029891,101.665641 209.114229,97.7652202 209.253387,91.8503886 C209.282906,90.6926813 209.430498,89.8022992 209.696164,89.1792422 C209.793243,88.9591223 210.0233,88.8300935 210.259123,88.8635039 L215.42696,89.6023316 C215.599854,89.6275907 215.686301,89.5518135 215.686301,89.375 L215.686301,39.5767487 C215.686301,39.3662565 215.580878,39.2610104 215.370032,39.2610104 Z" id="Path"></path>
                <path d="M360.324394,39.2779397 C355.596885,39.3095238 354.107657,40.1875607 354.063297,34.6350826 C354.037948,31.893586 354.033724,29.1563006 354.050623,26.4232264 C354.050623,26.1958212 354.164691,26.0821186 354.392828,26.0821186 L382.707183,26 C382.976676,26 383.195143,26.2177663 383.195143,26.4863946 L383.195143,34.8751215 C383.195143,35.1699061 383.319773,35.2372854 383.569034,35.0772595 C391.610868,29.8911565 397.561446,26.3158406 407.428377,26.2084548 C412.219257,26.1516035 415.153354,29.7142857 418.82256,33.8075802 C418.940853,33.9423388 419,34.0981535 419,34.2750243 L419,68.1899903 C419,68.4005507 418.894381,68.5058309 418.683143,68.5058309 L396.832674,68.5058309 C396.63411,68.5058309 396.532716,68.4047619 396.528491,68.2026239 C396.433434,59.5170068 396.800988,50.5471331 395.463851,41.962585 C395.366682,41.3393262 395.018139,41.1287658 394.418223,41.3309038 C390.951806,42.5058309 385.869417,48.7089407 383.404268,51.5325559 C383.264851,51.6925818 383.195143,51.8757694 383.195143,52.0821186 L383.195143,89.3197279 C383.195143,89.5092323 383.2902,89.6081957 383.480314,89.6166181 L388.074743,89.8061224 C388.957878,89.8458196 389.658922,90.5611861 389.67804,91.4421769 L389.918851,103.58309 C389.923076,103.86103 389.785771,104 389.506937,104 L354.36748,103.84208 C354.198489,103.84208 354.111882,103.75575 354.107657,103.58309 C353.947116,97.4305151 353.966127,93.1098154 354.164691,90.6209913 C354.437188,87.228863 358.771794,90.797862 359.361148,86.9825073 C359.728703,84.6073858 359.935716,82.2238419 359.982188,79.8318756 C360.239899,66.4275996 360.468036,53.0233236 360.6666,39.6190476 C360.6666,39.3916424 360.552531,39.2779397 360.324394,39.2779397 Z" id="Path"></path>
                <path d="M441.333665,39.2265543 C438.537129,39.1696523 434.088372,40.3140148 434.033298,36.5648051 C433.984343,33.1169652 433.998622,29.881981 434.076133,26.8598525 C434.092452,26.3287671 434.355583,26.0632244 434.865528,26.0632244 L469.507084,26 C469.747778,26 469.868125,26.1264489 469.868125,26.3793467 L469.776335,37.3234984 C469.769716,38.3353773 468.978243,39.1559306 467.995608,39.1696523 L463.828341,39.2265543 C463.575408,39.2307692 463.450982,39.3635406 463.455061,39.6248683 C463.581528,53.3192835 463.793665,66.9947313 464.091472,80.6512118 C464.156745,83.6269758 464.454553,86.2339305 464.984895,88.4720759 C465.038455,88.6911483 465.199052,88.8642898 465.407129,88.9272919 L468.491274,89.8377239 C468.657361,89.8866496 468.800556,89.994248 468.89515,90.1412013 C470.541251,92.6765016 469.886483,100.446786 469.794693,103.608008 C469.786533,103.869336 469.653948,104 469.396936,104 L434.498367,103.981033 C434.249515,103.981033 434.118969,103.852476 434.10673,103.595364 C433.92723,99.8103267 433.974144,96.0674394 434.247475,92.3667018 C434.528964,88.4973656 437.674302,89.5595364 440.256662,89.4646997 C440.493276,89.4562698 440.636061,89.3319283 440.685015,89.0916754 C441.186801,86.5964173 441.456052,84.2866175 441.492768,82.1622761 C441.725302,69.3150685 441.776297,55.1127503 441.645751,39.5553214 C441.641671,39.3403583 441.537643,39.2307692 441.333665,39.2265543 Z" id="Path"></path>
                <path d="M85.4723802,71.5182016 L86.1685114,91.1568537 C86.1787184,91.5092145 86.4454752,91.8007127 86.7950295,91.8414807 C90.6553933,92.2978986 94.6528738,92.6169686 98.7874712,92.7986906 C107.356213,93.1790389 105.476659,84.0570182 105.394389,78.1869757 C105.394389,77.9629928 105.504082,77.8510013 105.723469,77.8510013 L127.544017,77.8510013 C127.763404,77.8510013 127.875207,77.9608797 127.879426,78.1806365 C127.892083,81.079736 127.885755,83.9217832 127.860441,86.7067782 C127.759185,97.9841062 119.089188,103.505496 108.691519,103.809775 C100.118558,104.067566 90.5984371,104.06334 80.1311555,103.797096 C72.4273038,103.59847 67.1261594,100.029535 64.2277223,93.090291 C63.6834743,91.7844284 63.3543941,88.8578593 63.2404817,84.3105838 C62.9198394,71.2223752 62.9198394,58.1341666 63.2404817,45.045958 C63.3543941,40.386691 63.2847809,36.2979464 66.2211888,32.8874898 C69.465582,29.1220413 73.7752669,27.0449168 79.1502434,26.6561163 C91.2291741,25.7855413 102.725886,25.7813152 113.640379,26.643438 C125.658135,27.5879697 127.784499,36.3740161 127.841455,46.5927079 C127.887864,54.6687707 127.940601,62.5588855 127.999837,70.2630522 C128.008105,70.8800617 127.702229,71.1885664 127.082039,71.1885664 L85.782475,71.1949056 C85.5673072,71.1949056 85.4639423,71.3026709 85.4723802,71.5182016 Z M85.8520881,61.8827107 L105.229849,61.8193193 C105.331207,61.8193193 105.413374,61.7370135 105.413374,61.6354842 L105.343761,42.3771806 C105.339679,40.8482313 104.795204,39.3832969 103.830217,38.3049214 C102.86523,37.2265459 101.558853,36.623148 100.198719,36.6275574 L90.706021,36.6656165 C87.8763706,36.6748217 85.5904252,39.2597146 85.5989258,42.440572 L85.6685626,61.6988756 C85.6685626,61.8004049 85.7507298,61.8827107 85.8520881,61.8827107 L85.8520881,61.8827107 Z" id="Shape"></path>
                <path d="M320.640008,56.7123761 C321.253222,51.6690138 321.413003,46.619305 321.119351,41.5632497 C320.937978,38.4280723 319.81735,36.8795232 316.604452,36.5875836 C304.050828,35.4388647 304.892918,41.2522706 305.054859,50.7212679 C305.059177,50.9412803 304.949058,51.0512866 304.7245,51.0512866 L282.558092,51.0512866 C282.333534,51.0512866 282.212619,50.9412803 282.195345,50.7212679 C281.767822,45.7244467 282.042041,41.2395776 283.018003,37.2666604 C285.168572,28.5338586 292.028369,26.4268163 300.403929,26.1856488 C309.135758,25.9360193 317.867587,25.9381348 326.599416,26.1919953 C329.894364,26.2893085 332.643034,26.5431691 334.845424,26.9535769 C338.168442,27.5755352 341.10928,31.2438197 343.590208,33.4968318 C343.749989,33.640686 343.832039,33.8162729 343.836357,34.0235923 C344.017731,49.1240621 344.309224,64.2118389 344.710836,79.2869227 C344.792886,82.2697838 345.131881,85.2209123 345.727822,88.1403082 C345.764481,88.3210639 345.88279,88.4787071 346.051703,88.5718711 L349.018452,90.2029249 C349.146347,90.2714663 349.240141,90.3909311 349.277556,90.5329436 C350.236244,94.4487421 350.009527,99.4878734 349.879975,103.47983 C349.869508,103.766796 349.628936,103.994081 349.335855,103.993898 C334.834628,104.015053 320.344196,103.981205 305.864561,103.892353 C294.548162,103.816195 285.537796,102.965762 283.283585,90.4250529 C282.111136,83.9135306 279.86988,60.8122235 289.832457,59.1430906 C299.743212,57.4739577 310.21752,57.4612646 320.264306,57.0487413 C320.488863,57.0402793 320.614097,56.9281576 320.640008,56.7123761 Z M305.307486,84.091233 C305.553635,87.8293291 305.13259,92.0180277 310.398894,92.1132253 C313.996131,92.1766905 317.582572,92.199961 321.158217,92.183037 C321.382774,92.178806 321.490735,92.0687998 321.482098,91.8530183 L320.704784,66.7525596 C320.700465,66.5452402 320.592505,66.4288874 320.380903,66.4035014 C315.695426,65.8703943 312.214786,65.739233 309.938983,66.0100176 C303.701037,66.7462131 305.022471,79.8517623 305.307486,84.091233 Z" id="Shape"></path>
            </g>
        </g>
    </g>
</svg>