<?xml version="1.0" encoding="UTF-8"?>
<svg width="26px" height="20px" viewBox="0 0 26 20" version="1.1" xmlns="http://www.w3.org/2000/svg" xmlns:xlink="http://www.w3.org/1999/xlink">
    <title>CCA7CEC2-DB90-4675-ACF2-C0265F004866</title>
    <g id="Page-1" stroke="none" stroke-width="1" fill="none" fill-rule="evenodd">
        <g id="M-Home" transform="translate(-325, -21)" fill="#FFFFFF" fill-rule="nonzero">
            <g id="Header-M-Copy">
                <path d="M349.880881,23 C350.037037,23 350.184518,22.9770115 350.323323,22.9310345 C350.462129,22.8850575 350.583584,22.816092 350.687688,22.7241379 C350.791792,22.6168582 350.86987,22.5057471 350.921922,22.3908046 C350.973974,22.2758621 351,22.1417625 351,21.9885057 C351,21.8505747 350.973974,21.7203065 350.921922,21.5977011 C350.86987,21.4750958 350.791792,21.3678161 350.687688,21.2758621 C350.583584,21.183908 350.462129,21.1149425 350.323323,21.0689655 C350.184518,21.0229885 350.037037,21 349.880881,21 L349.880881,21 L326.119119,21 C325.962963,21 325.815482,21.0229885 325.676677,21.0689655 C325.537871,21.1149425 325.416416,21.183908 325.312312,21.2758621 C325.208208,21.3678161 325.13013,21.4750958 325.078078,21.5977011 C325.026026,21.7203065 325,21.8505747 325,21.9885057 C325,22.1417625 325.026026,22.2758621 325.078078,22.3908046 C325.13013,22.5057471 325.208208,22.6168582 325.312312,22.7241379 C325.416416,22.816092 325.537871,22.8850575 325.676677,22.9310345 C325.815482,22.9770115 325.962963,23 326.119119,23 L326.119119,23 L349.880881,23 Z M349.880881,32 C350.037037,32 350.184518,31.9767442 350.323323,31.9302326 C350.462129,31.8837209 350.583584,31.8139535 350.687688,31.7209302 C350.791792,31.627907 350.86987,31.5193798 350.921922,31.3953488 C350.973974,31.2713178 351,31.1395349 351,31 C351,30.8604651 350.973974,30.7286822 350.921922,30.6046512 C350.86987,30.4806202 350.791792,30.372093 350.687688,30.2790698 C350.583584,30.1860465 350.462129,30.1162791 350.323323,30.0697674 C350.184518,30.0232558 350.037037,30 349.880881,30 L349.880881,30 L326.119119,30 C325.962963,30 325.815482,30.0232558 325.676677,30.0697674 C325.537871,30.1162791 325.416416,30.1860465 325.312312,30.2790698 C325.208208,30.372093 325.13013,30.4806202 325.078078,30.6046512 C325.026026,30.7286822 325,30.8604651 325,31 C325,31.1395349 325.026026,31.2713178 325.078078,31.3953488 C325.13013,31.5193798 325.208208,31.627907 325.312312,31.7209302 C325.416416,31.8139535 325.537871,31.8837209 325.676677,31.9302326 C325.815482,31.9767442 325.962963,32 326.119119,32 L326.119119,32 L349.880881,32 Z M349.880881,41 C350.037037,41 350.184518,40.9770115 350.323323,40.9310345 C350.462129,40.8850575 350.583584,40.816092 350.687688,40.7241379 C350.791792,40.6168582 350.86987,40.5057471 350.921922,40.3908046 C350.973974,40.2758621 351,40.1417625 351,39.9885057 C351,39.8505747 350.973974,39.7203065 350.921922,39.5977011 C350.86987,39.4750958 350.791792,39.3678161 350.687688,39.2758621 C350.583584,39.183908 350.462129,39.1149425 350.323323,39.0689655 C350.184518,39.0229885 350.037037,39 349.880881,39 L349.880881,39 L326.119119,39 C325.962963,39 325.815482,39.0229885 325.676677,39.0689655 C325.537871,39.1149425 325.416416,39.183908 325.312312,39.2758621 C325.208208,39.3678161 325.13013,39.4750958 325.078078,39.5977011 C325.026026,39.7203065 325,39.8505747 325,39.9885057 C325,40.1417625 325.026026,40.2758621 325.078078,40.3908046 C325.13013,40.5057471 325.208208,40.6168582 325.312312,40.7241379 C325.416416,40.816092 325.537871,40.8850575 325.676677,40.9310345 C325.815482,40.9770115 325.962963,41 326.119119,41 L326.119119,41 L349.880881,41 Z" id="icon-menu"></path>
            </g>
        </g>
    </g>
</svg>