<?xml version="1.0" encoding="UTF-8"?>
<svg width="18px" height="22px" viewBox="0 0 18 22" version="1.1" xmlns="http://www.w3.org/2000/svg" xmlns:xlink="http://www.w3.org/1999/xlink">
    <title>9B2D1371-8B95-4ADA-90E8-8EA0DA38B488</title>
    <g id="Page-1" stroke="none" stroke-width="1" fill="none" fill-rule="evenodd">
        <g id="Home" transform="translate(-1194, -4270)" fill="#FFFFFF">
            <g id="Footer" transform="translate(-1.5, 4231.5)">
                <g id="Group-5" transform="translate(1041.5, 37.5)">
                    <g id="icon-pinterest" transform="translate(154.9245, 1.3039)">
                        <path d="M0,7.75210765 C0,2.96060393 4.38224987,0 8.81636068,0 C12.8874449,0 16.5955025,2.80478267 16.5955025,7.1028524 C16.5955025,11.14122 14.5340299,15.6210812 9.94433624,15.6210812 C8.85525639,15.6210812 7.48094134,15.0757068 6.94936665,14.0628687 C5.96400869,17.9713852 6.04180011,18.555715 3.86364041,21.5422891 L3.68212711,21.6072146 L3.56543998,21.4773636 C3.48764856,20.659302 3.37096144,19.8542255 3.37096144,19.0361638 C3.37096144,16.3872024 4.58969365,12.5565965 5.18609452,9.9855457 C4.86196361,9.32330535 4.77120696,8.51822884 4.77120696,7.79106297 C4.77120696,6.47956737 5.6787735,4.81747393 7.15681043,4.81747393 C8.24589028,4.81747393 8.82932591,5.64852065 8.82932591,6.67434394 C8.82932591,8.36240758 7.68838512,9.94659039 7.68838512,11.5827136 C7.68838512,12.6994326 8.6089169,13.4785389 9.68503151,13.4785389 C12.6670359,13.4785389 13.5875676,9.16748409 13.5875676,6.86912052 C13.5875676,3.79165064 11.4094079,2.11657211 8.4662993,2.11657211 C5.04347692,2.11657211 2.39856871,4.58374205 2.39856871,8.06375017 C2.39856871,9.73882871 3.42282238,10.5958456 3.42282238,10.9983839 C3.42282238,11.3359966 3.17648289,12.5306263 2.74863009,12.5306263 C2.68380391,12.5306263 2.59304726,12.5046561 2.52822108,12.491671 C0.674192287,11.9333114 0,9.4531564 0,7.75210765 Z" id="pinterest-p---FontAwesome"></path>
                    </g>
                </g>
            </g>
        </g>
    </g>
</svg>