<?xml version="1.0" encoding="UTF-8"?>
<svg width="19px" height="20px" viewBox="0 0 19 20" version="1.1" xmlns="http://www.w3.org/2000/svg" xmlns:xlink="http://www.w3.org/1999/xlink">
    <title>10E8BE33-684A-4A85-A104-115E47B1C89B</title>
    <g id="Page-1" stroke="none" stroke-width="1" fill="none" fill-rule="evenodd">
        <g id="Home" transform="translate(-1297, -4271)" fill="#FFFFFF">
            <g id="Footer" transform="translate(-1.5, 4231.5)">
                <g id="Group-5" transform="translate(1041.5, 37.5)">
                    <g id="icon-linked-in" transform="translate(257.7736, 2.703)">
                        <path d="M5.64829009,15.3508772 L3.03773585,15.3508772 L3.03773585,7.14775219 L5.64829009,7.14775219 L5.64829009,15.3508772 Z M4.41420991,5.90049342 C4.00284779,5.90049342 3.67059875,5.76457556 3.41745283,5.49273575 C3.16430691,5.22089594 3.03773585,4.89309402 3.03773585,4.50932018 C3.03773585,4.09356517 3.1722176,3.74977292 3.44118514,3.47793311 C3.71015268,3.2060933 4.05031241,3.07017544 4.46167453,3.07017544 C4.87303665,3.07017544 5.20528568,3.2060933 5.4584316,3.47793311 C5.71157752,3.74977292 5.83814858,4.09356517 5.83814858,4.50932018 C5.83814858,4.89309402 5.70366683,5.22089594 5.43469929,5.49273575 C5.16573175,5.76457556 4.82557203,5.90049342 4.41420991,5.90049342 Z M12.198408,6.95586623 C13.0844187,6.95586623 13.8042916,7.25968263 14.3580483,7.86732456 C14.911805,8.47496649 15.1886792,9.37042537 15.1886792,10.5537281 L15.1886792,15.3508772 L12.578125,15.3508772 L12.578125,10.841557 C12.578125,9.65825432 12.1351263,9.06661184 11.2491156,9.06661184 C10.6162508,9.06661184 10.1732521,9.38641859 9.92010613,10.0260417 C9.85681965,10.1539663 9.82517689,10.377831 9.82517689,10.6976425 L9.82517689,15.3508772 L7.21462264,15.3508772 L7.21462264,7.14775219 L9.82517689,7.14775219 L9.82517689,8.29906798 C10.4580417,7.40359567 11.2491108,6.95586623 12.198408,6.95586623 Z M16.7550118,0 C17.1663739,0 17.5144443,0.135917866 17.7992335,0.407757675 C18.0840227,0.679597485 18.2264151,1.02338973 18.2264151,1.43914474 L18.2264151,16.8379934 C18.2264151,17.2537484 18.0840227,17.6215262 17.7992335,17.9413377 C17.5144443,18.2611493 17.1663739,18.4210526 16.7550118,18.4210526 L1.56633255,18.4210526 C1.15497043,18.4210526 0.791078626,18.2611493 0.474646226,17.9413377 C0.158213827,17.6215262 0,17.2537484 0,16.8379934 L0,1.43914474 C0,1.02338973 0.150303135,0.679597485 0.450913915,0.407757675 C0.751524695,0.135917866 1.12332719,0 1.56633255,0 L16.7550118,0 Z M16.6126179,16.8859649 C16.6759044,16.8859649 16.7075472,16.8539842 16.7075472,16.7900219 L16.7075472,1.6310307 C16.7075472,1.56706839 16.6759044,1.53508772 16.6126179,1.53508772 L1.61379717,1.53508772 C1.55051069,1.53508772 1.51886792,1.56706839 1.51886792,1.6310307 L1.51886792,16.7420504 C1.51886792,16.8379939 1.56633207,16.8859649 1.66126179,16.8859649 L16.6126179,16.8859649 Z" id="ion-social-linkedin-outline---Ionicons"></path>
                    </g>
                </g>
            </g>
        </g>
    </g>
</svg>