<?xml version="1.0" encoding="UTF-8"?>
<svg width="21px" height="22px" viewBox="0 0 21 22" version="1.1" xmlns="http://www.w3.org/2000/svg" xmlns:xlink="http://www.w3.org/1999/xlink">
    <title>C8A8E640-190D-47A4-BDC0-24547562A1B6</title>
    <g id="Page-1" stroke="none" stroke-width="1" fill="none" fill-rule="evenodd">
        <g id="Home" transform="translate(-1140, -4270)" fill="#FFFFFF">
            <g id="Footer" transform="translate(-1.5, 4231.5)">
                <g id="Group-5" transform="translate(1041.5, 37.5)">
                    <g id="icon-insta" transform="translate(100.2453, 1.3039)">
                        <path d="M13.5667548,10.431055 C13.5667548,8.51613434 12.0432376,6.95431961 10.1752731,6.95431961 C8.30730856,6.95431961 6.78379139,8.51613434 6.78379139,10.431055 C6.78379139,12.3459757 8.30730856,13.9077904 10.1752731,13.9077904 C12.0432376,13.9077904 13.5667548,12.3459757 13.5667548,10.431055 Z M15.3949754,10.431055 C15.3949754,13.3917125 13.0633317,15.7819681 10.1752731,15.7819681 C7.28721446,15.7819681 4.95557079,13.3917125 4.95557079,10.431055 C4.95557079,7.47039752 7.28721446,5.08014194 10.1752731,5.08014194 C13.0633317,5.08014194 15.3949754,7.47039752 15.3949754,10.431055 Z M16.8257567,4.86284597 C16.8257567,5.55547685 16.2825897,6.11229776 15.606943,6.11229776 C14.9312962,6.11229776 14.3881293,5.55547685 14.3881293,4.86284597 C14.3881293,4.17021509 14.9312962,3.61339419 15.606943,3.61339419 C16.2825897,3.61339419 16.8257567,4.17021509 16.8257567,4.86284597 Z M10.1752731,1.87502649 C8.69149985,1.87502649 5.51198576,1.75279751 4.17394024,2.29603742 C3.7102611,2.48617138 3.36581374,2.71704834 3.00811841,3.08373528 C2.65042307,3.45042222 2.42520749,3.80352816 2.23973584,4.27886307 C1.70981682,5.65054384 1.8290486,8.90998328 1.8290486,10.431055 C1.8290486,11.9521268 1.70981682,15.2115662 2.23973584,16.583247 C2.42520749,17.0585819 2.65042307,17.4116878 3.00811841,17.7783747 C3.36581374,18.1450617 3.7102611,18.3759386 4.17394024,18.5660726 C5.51198576,19.1093125 8.69149985,18.9870835 10.1752731,18.9870835 C11.6590463,18.9870835 14.8385604,19.1093125 16.1766059,18.5660726 C16.6402851,18.3759386 16.9847324,18.1450617 17.3424278,17.7783747 C17.7001231,17.4116878 17.9253387,17.0585819 18.1108103,16.583247 C18.6407294,15.2115662 18.5214976,11.9521268 18.5214976,10.431055 C18.5214976,8.90998328 18.6407294,5.65054384 18.1108103,4.27886307 C17.9253387,3.80352816 17.7001231,3.45042222 17.3424278,3.08373528 C16.9847324,2.71704834 16.6402851,2.48617138 16.1766059,2.29603742 C14.8385604,1.75279751 11.6590463,1.87502649 10.1752731,1.87502649 Z M20.3497182,10.431055 C20.3497182,11.8706408 20.3629662,13.2966455 20.2834783,14.7362313 C20.2039904,16.406694 19.8330471,17.8870227 18.6407294,19.1093125 C17.4484116,20.3316023 16.0043823,20.7118702 14.3748813,20.7933562 C12.9705959,20.8748422 11.5795585,20.8612612 10.1752731,20.8612612 C8.7709877,20.8612612 7.37995028,20.8748422 5.97566489,20.7933562 C4.34616392,20.7118702 2.90213461,20.3316023 1.70981682,19.1093125 C0.517499038,17.8870227 0.146555728,16.406694 0.0670678753,14.7362313 C-0.0124199769,13.2966455 0.000827998461,11.8706408 0.000827998461,10.431055 C0.000827998461,8.99146926 -0.0124199769,7.56546451 0.0670678753,6.12587876 C0.146555728,4.45541604 0.517499038,2.9750873 1.70981682,1.75279751 C2.90213461,0.530507721 4.34616392,0.150239787 5.97566489,0.0687538006 C7.37995028,-0.0127321853 8.7709877,0.000848812354 10.1752731,0.000848812354 C11.5795585,0.000848812354 12.9705959,-0.0127321853 14.3748813,0.0687538006 C16.0043823,0.150239787 17.4484116,0.530507721 18.6407294,1.75279751 C19.8330471,2.9750873 20.2039904,4.45541604 20.2834783,6.12587876 C20.3629662,7.56546451 20.3497182,8.99146926 20.3497182,10.431055 Z" id="instagram---FontAwesome"></path>
                    </g>
                </g>
            </g>
        </g>
    </g>
</svg>