<?xml version="1.0" encoding="UTF-8"?>
<svg width="23px" height="19px" viewBox="0 0 23 19" version="1.1" xmlns="http://www.w3.org/2000/svg" xmlns:xlink="http://www.w3.org/1999/xlink">
    <title>3179D17C-2D0B-47BD-A717-C13EF345D24F</title>
    <g id="Page-1" stroke="none" stroke-width="1" fill="none" fill-rule="evenodd">
        <g id="Home" transform="translate(-1088, -4271)" fill="#FFFFFF">
            <g id="Footer" transform="translate(-1.5, 4231.5)">
                <g id="Group-5" transform="translate(1041.5, 37.5)">
                    <g id="icon-twitter" transform="translate(48.1698, 2.6078)">
                        <path d="M22.4033019,2.18671856 C21.8337236,3.07408706 21.0742972,3.86636847 20.125,4.56358657 L20.125,5.13403489 C20.125,8.46166673 18.9304856,11.4802589 16.541421,14.189902 C14.1523564,16.8995451 10.9801691,18.2543463 7.02476415,18.2543463 C4.49330495,18.2543463 2.15174032,17.5571386 0,16.1627024 C0.50629184,16.2260859 0.870183641,16.2577771 1.09168632,16.2577771 C3.2117834,16.2577771 5.11034932,15.5922608 6.78744104,14.261208 C5.8065006,14.2295163 4.92050317,13.9205265 4.12942217,13.3342295 C3.33834117,12.7479325 2.80041416,11.9952651 2.515625,11.0762049 C2.89534388,11.1395884 3.18012877,11.1712796 3.36998821,11.1712796 C3.68642061,11.1712796 4.09777656,11.1078971 4.6040684,10.9811302 C3.55984148,10.7592881 2.68175474,10.2284595 1.96978184,9.38862862 C1.25780894,8.54879772 0.90182783,7.57429159 0.90182783,6.46508097 L0.90182783,6.41754361 C1.59797911,6.79784439 2.29411995,6.98799193 2.99027123,6.98799193 C1.62961191,6.10062344 0.949292453,4.81712755 0.949292453,3.13746577 C0.949292453,2.34517247 1.15497043,1.58458231 1.56633255,0.855672482 C4.00286203,3.86638701 7.15131718,5.46679546 11.0117925,5.65694585 C10.948506,5.43510373 10.9168632,5.08649991 10.9168632,4.61112393 C10.9168632,3.31176292 11.3598619,2.21841457 12.2458726,1.33104608 C13.1318834,0.443677591 14.2235588,0 15.5209316,0 C16.8183044,0 17.9258012,0.491214475 18.8434552,1.47365816 C19.7927524,1.3151995 20.7736781,0.934904426 21.7862618,0.332761521 C21.4698294,1.44197214 20.7895099,2.29763606 19.745283,2.89977897 C20.7262235,2.80470377 21.6122209,2.56701935 22.4033019,2.18671856 Z" id="ion-social-twitter---Ionicons"></path>
                    </g>
                </g>
            </g>
        </g>
    </g>
</svg>