<?xml version="1.0" encoding="UTF-8"?>
<svg width="23px" height="18px" viewBox="0 0 23 18" version="1.1" xmlns="http://www.w3.org/2000/svg" xmlns:xlink="http://www.w3.org/1999/xlink">
    <title>E92BF392-0072-430E-AC77-9F90A4BFAB31</title>
    <g id="Page-1" stroke="none" stroke-width="1" fill="none" fill-rule="evenodd">
        <g id="Home" transform="translate(-1244, -4271)" fill="#FFFFFF">
            <g id="Footer" transform="translate(-1.5, 4231.5)">
                <g id="Group-5" transform="translate(1041.5, 37.5)">
                    <g id="icon-youtube" transform="translate(204.3962, 2.6078)">
                        <path d="M11.4550781,1.38537449 L10.6769973,1.38537449 C8.7173767,1.38537449 6.29670515,1.44309785 3.41491008,1.55854631 L3.32845666,1.55854631 C2.8385515,1.55854631 2.4134931,1.76779349 2.05326872,2.18629412 C1.69304434,2.60479476 1.51293485,3.10265874 1.51293485,3.679901 L1.51293485,3.76648691 C1.42648099,5.23845466 1.38325472,6.75369287 1.38325472,8.31224696 C1.38325472,9.84193895 1.42648099,11.3427463 1.51293485,12.8147141 L1.51293485,12.9445929 C1.51293485,13.5218352 1.71465748,14.0413454 2.11810879,14.5031392 C2.46392419,14.8783467 2.86736945,15.0659476 3.32845666,15.0659476 L3.41491008,15.0659476 C6.41197695,15.1813961 8.80383098,15.2391194 10.5905439,15.2391194 L11.5415315,15.2391194 C13.2706086,15.2391194 15.6624626,15.1813961 18.7171654,15.0659476 L18.8036188,15.0659476 C19.264706,15.0659476 19.6681513,14.8783467 20.0139667,14.5031392 C20.417418,14.0413454 20.6191406,13.5218352 20.6191406,12.9445929 L20.6191406,12.8147141 C20.7055945,11.3427463 20.7488208,9.84193895 20.7488208,8.31224696 C20.7488208,6.75369287 20.7055945,5.23845466 20.6191406,3.76648691 L20.6191406,3.63660805 C20.6191406,3.05936579 20.4390311,2.56150181 20.0788068,2.14300117 C19.7185824,1.72450053 19.293524,1.51525335 18.8036188,1.51525335 L18.7171654,1.51525335 C16.613455,1.42866701 14.1927834,1.38537449 11.4550781,1.38537449 Z M11.4550781,0 C14.7691425,0 17.2186315,0.04329252 18.8036188,0.129878859 C19.6969753,0.129878859 20.4534351,0.469003599 21.0730211,1.14726325 C21.692607,1.82552291 22.0023953,2.65529621 22.0023953,3.63660805 C22.0888492,5.19516214 22.1320755,6.75369287 22.1320755,8.31224696 C22.1320755,9.84193895 22.0888492,11.3860388 22.0023953,12.9445929 C22.0023953,13.9259048 21.692607,14.7556781 21.0730211,15.4339377 C20.4534351,16.1121974 19.6969753,16.4513221 18.8036188,16.4513221 C16.6999084,16.5667706 14.2792369,16.6244939 11.5415315,16.6244939 L10.5905439,16.6244939 C7.85283861,16.6244939 5.43216706,16.5667706 3.32845666,16.4513221 C2.43510019,16.4513221 1.67864033,16.1121974 1.05905439,15.4339377 C0.439468453,14.7556781 0.12968013,13.9259048 0.12968013,12.9445929 C0.0432262776,11.3860388 0,9.84193895 0,8.31224696 C0,7.30207301 0.0576350369,5.75797313 0.17290684,3.679901 C0.17290684,2.69858916 0.475490783,1.86160044 1.08066775,1.16890973 C1.68584471,0.476219019 2.43510019,0.129878859 3.32845666,0.129878859 C5.72034657,0.04329252 8.16983564,0 10.6769973,0 L11.4550781,0 Z M8.94792895,12.5549564 L8.94792895,4.02624462 L15.2158019,8.31224696 L8.94792895,12.5549564 Z" id="ion-social-youtube-outline---Ionicons"></path>
                    </g>
                </g>
            </g>
        </g>
    </g>
</svg>