<?xml version="1.0" encoding="UTF-8"?>
<svg width="429px" height="101px" viewBox="0 0 429 101" version="1.1" xmlns="http://www.w3.org/2000/svg" xmlns:xlink="http://www.w3.org/1999/xlink">
    <title>90A9E82D-8802-4FE0-96E7-1B6E5C9FB9D5</title>
    <g id="Page-1" stroke="none" stroke-width="1" fill="none" fill-rule="evenodd" opacity="0.15">
        <g id="SRP-by-Make" transform="translate(-868, -1894)" fill="#FFFFFF" fill-rule="nonzero">
            <g id="Group-4-Copy-3" transform="translate(87, 1754)">
                <g id="Pasted-20230928-135256" transform="translate(781, 140)">
                    <path d="M70.5196365,79.6319792 C67.637413,79.0419797 66.1971515,75.321752 64.9915488,73.0688719 C64.9361728,72.9648672 64.8399422,72.888615 64.7258256,72.8583154 C64.6117091,72.8280157 64.4899455,72.8463872 64.3895977,72.9090449 C64.290973,72.9713888 64.1611737,73.0705722 64.0002,73.2065951 C61.793046,75.0803113 59.6879175,77.0458429 57.2154969,78.5761011 C56.3550809,79.1088576 55.4238138,79.4358795 54.4216956,79.5571666 C52.8930119,79.7407976 50.4375955,80.0706532 49.3510227,79.382037 C46.8672659,77.8053043 44.4044811,76.196833 41.9626681,74.5566229 C40.7383608,73.7353843 39.7793201,73.5517534 38.607726,74.5702252 C37.5908707,75.4526741 36.1948203,76.1123854 34.8956942,76.6938835 C26.0381707,80.650451 5.55312856,85.9536458 0.16957718,73.7761912 C-0.279335506,72.7628203 0.254598523,71.0846371 0.710312916,70.1511796 C3.54152361,64.3464002 9.86541104,60.5037519 16.0617665,59.0483064 C22.9450943,57.4330338 30.2552293,58.0910449 36.9838183,60.0803805 C37.0756414,60.1075851 37.1430916,60.079247 37.1861691,59.9953661 C43.5230931,47.7544342 49.8078708,35.4658942 56.0405019,23.1297462 C56.853306,21.5246754 57.689916,19.4282217 58.5826401,17.8401538 C61.1825927,13.2136732 65.4319594,9.14828732 69.8717739,6.04696407 C70.6732417,5.48813645 71.4531708,5.03302633 72.2115612,4.68163371 C83.6894424,-0.628362179 99.7176658,-3.54265387 108.954384,7.83396557 C109.235522,8.18082409 109.452609,8.55998806 109.605648,8.97145749 C111.217653,13.3026549 110.987528,17.4371858 108.915275,21.3750502 C106.021148,26.8771785 98.8249417,31.6906906 92.4687462,31.3217284 C91.3787726,31.2588178 90.2309845,31.2180109 89.2243318,31.0649851 C86.1034817,30.5866377 83.3714626,29.3879355 81.0282744,27.4688783 C80.2290738,26.8159682 81.2782371,26.2055652 81.9056946,26.0882454 C82.4418959,25.9873617 82.7247336,25.9335193 82.7542076,25.9267181 C89.5236069,24.2298319 98.4848564,20.1474431 96.2402929,11.2855479 C95.4626311,8.2136963 93.5468168,6.45389939 90.4928502,6.00615719 C86.8301308,5.46886653 82.4294261,7.58062283 79.409468,9.63286908 C78.4402247,10.2908801 77.5832096,11.3620608 76.9863598,12.2275068 C72.5941573,18.5984817 69.2358142,25.5033467 65.9250832,32.5646381 C65.4126879,33.6562223 64.9099284,34.6712935 64.4168046,35.6098519 C58.8224003,46.2717841 53.23083,56.934283 47.6420938,67.5973487 C47.5451694,67.7843803 47.6744019,67.9119018 47.7645245,68.0666279 C50.0056871,71.9534837 53.9608799,74.2777759 58.3258756,71.9041754 C60.17594,70.8993058 61.4376567,69.6478947 62.8592136,68.2060514 C64.035909,67.0124501 65.4863731,66.0500877 66.1784468,64.4501177 C69.5588953,56.6253976 75.5529,48.7513691 83.9870171,46.2128408 C87.7772685,45.070248 92.5673709,45.4783169 95.1163108,48.8261817 C95.2296726,48.9746734 95.3356658,48.9701393 95.4342906,48.8125794 L97.3166631,45.8200745 C97.3484044,45.7701994 97.3931823,45.7458287 97.4509968,45.7469622 L107.405296,45.8217748 C107.447239,45.8217748 107.479548,45.8399112 107.50222,45.876184 C107.847973,46.431611 107.859876,46.925261 107.537929,47.3571338 C107.286266,47.6960577 107.143997,47.8961248 107.111122,47.9573351 C103.659255,54.5363118 100.258402,61.1407927 96.9085607,67.770778 C96.8314747,67.9238038 96.8110695,68.2343896 96.8473453,68.7025352 C96.8518798,68.7637455 96.8813538,68.8068195 96.9357675,68.831757 C97.1647583,68.9383083 97.4011177,68.9003352 97.6448455,68.7178378 C102.568148,65.0316159 107.479548,61.3295246 112.379044,57.611564 C112.605768,57.4392682 112.787147,57.2284327 112.923181,56.9790572 C114.593,53.9366773 116.202737,50.8653924 117.752393,47.7652027 C118.090211,47.0884885 118.587869,46.3794689 119.245368,45.6381438 C119.285216,45.5939079 119.342275,45.5691016 119.401807,45.5701323 L129.737001,45.8200745 C129.826557,45.8223416 129.861132,45.8676826 129.840727,45.9560975 C129.407118,47.8434159 128.701441,49.5437028 128.002566,51.3324045 C127.992364,51.3602868 128.000943,51.3915706 128.02394,51.4103504 C128.046938,51.4291302 128.079308,51.4312847 128.104592,51.4157186 C130.706245,49.7256335 133.303363,48.0361151 135.895947,46.3471634 C136.434416,45.9957708 136.928106,45.7543301 137.377019,45.6228412 C141.847441,44.3153206 145.090155,46.9949727 145.421738,51.5092344 C145.423593,51.537483 145.439667,51.5628569 145.464416,51.5766052 C145.489165,51.5903535 145.519203,51.5905948 145.544169,51.5772459 C148.767045,49.8803596 151.905466,48.0400824 154.959433,46.0564144 C155.288182,45.8433118 155.617498,45.7016212 155.947381,45.6313427 C160.115127,44.7420926 164.3917,45.7690659 164.304979,50.9413386 C164.298177,51.355075 164.209188,51.8005502 164.038012,52.277764 C163.468935,53.8590308 162.810303,55.4028913 162.062116,56.9093455 C159.644109,61.7721659 156.996544,66.549972 154.719672,71.4757031 C154.616513,71.700141 154.673761,71.7539834 154.891416,71.6372303 C158.285468,69.8269916 161.678953,67.8920651 165.071871,65.832451 C167.010358,64.6575527 169.533791,63.2684184 170.506435,61.3964025 C177.29794,48.3313982 184.068473,35.2556254 190.818034,22.1690842 C190.916659,21.9775185 191.226703,21.721342 191.748167,21.4005545 C191.794646,21.3722164 191.845659,21.3580473 191.901206,21.3580473 C195.132017,21.3580473 198.360561,21.3586141 201.586837,21.3597476 C202.255105,21.3597476 202.654705,21.7032056 202.772035,22.3289111 C202.783371,22.3923885 202.774869,22.4535988 202.746528,22.5125421 L191.185326,45.532726 C191.14905,45.6041381 191.171156,45.6358768 191.251643,45.6279421 C193.666249,45.3831008 196.114864,45.0872509 198.524368,45.3882017 C200.884561,45.6823513 202.450654,48.0984589 202.800942,50.3088319 C203.049204,51.8719622 203.131958,53.405621 203.049204,54.9098081 C203.04467,54.9789531 203.076411,55.0186265 203.144428,55.0288282 C203.813263,55.1274448 204.476996,55.1081749 205.135628,54.9710184 C205.194731,54.9591443 205.244933,54.9208685 205.271662,54.867301 C205.816932,53.7734497 206.43022,52.8785321 207.111524,52.182548 C213.161643,45.9952041 226.967408,39.8894739 231.420826,51.9836144 C231.444632,52.0493588 231.483175,52.0595606 231.536455,52.0142196 C234.191388,49.7551051 235.89975,48.3398997 236.661542,47.7686033 C237.605278,47.0629842 238.736062,46.071717 239.975674,46.0819187 C246.952525,46.1363279 253.910671,46.1635325 260.83481,46.1992385 C260.985581,46.200372 261.041695,46.2729176 261.003152,46.4168752 C260.396666,48.7088619 259.662082,50.8812618 258.799399,52.9340748 C258.597048,53.415256 258.444009,53.8046217 257.938983,54.0511633 C253.089365,56.4196629 243.247295,62.2635488 243.619688,68.6209214 C243.676369,69.5810168 243.932567,70.3223418 244.388281,70.8448967 C245.81664,72.4805726 248.732872,70.9503144 250.339775,69.9454449 C253.390341,68.037723 256.223252,65.6828257 258.938834,63.3296287 C259.13495,63.1596 259.286854,62.952165 259.394548,62.7073237 C261.656116,57.5452528 264.973649,52.4528936 269.364151,48.9281989 C273.523395,45.5888355 278.255116,44.5199218 283.559314,45.7214579 C284.656089,45.9714001 286.230684,46.6209096 286.786724,47.6835889 C286.796736,47.7030623 286.81495,47.7170236 286.836357,47.7216339 C286.857764,47.7262443 286.88011,47.7210183 286.897252,47.7073929 L288.526261,46.3998723 C288.573873,46.362466 288.62772,46.3437629 288.687801,46.3437629 L299.184536,46.4491807 C299.236683,46.4503142 299.263323,46.476952 299.264456,46.5290941 C299.27806,47.0425808 299.340975,47.4608513 299.089312,47.9369317 C297.178032,51.5642103 295.266753,55.1909222 293.355473,58.8170673 C293.330047,58.8645108 293.32051,58.918748 293.328266,58.9717935 C293.414988,59.6655105 294.003336,59.3118508 294.311113,59.0806118 C298.108733,56.2320645 301.90692,53.384084 305.705673,50.5366703 C305.91766,50.3779769 306.085435,50.1813103 306.208999,49.9466708 C311.026875,40.8149967 315.841351,31.682756 320.652425,22.5499484 C320.851375,22.1724847 321.334296,21.9038394 321.801914,21.9089403 C325.031591,21.9361449 328.261835,21.9650497 331.492646,21.9956549 C331.542525,21.9967884 331.588437,22.0109575 331.630381,22.0381621 C332.049819,22.3170091 332.153545,22.6667015 331.941559,23.0872391 C328.605321,29.703622 325.22544,36.2973345 321.801914,42.8683765 C321.053726,44.3022851 320.27493,45.7174905 319.465527,47.1139928 C319.434052,47.1682931 319.428187,47.2337274 319.449506,47.2927584 C319.470824,47.3517893 319.517146,47.3983804 319.576055,47.4200445 C319.605529,47.4313797 319.66391,47.4223115 319.751199,47.3928399 C321.744099,46.7314283 324.199515,45.6466453 325.996867,45.4341094 C330.9111,44.850911 335.784524,48.5762395 333.040035,53.9100394 C330.236598,59.354358 327.43146,64.7998101 324.624622,70.2463957 C324.597415,70.2985378 324.592881,70.3523802 324.611019,70.4079229 C324.988513,71.552216 325.879537,71.3141758 326.72635,70.8363952 C329.91295,69.0408923 333.067808,67.1904134 336.190926,65.2849586 C336.466395,65.1166302 336.64664,65.0367167 336.80648,64.7289648 C339.879718,58.8074324 343.012471,52.7736811 346.204739,46.6277108 C346.239881,46.5596993 346.295429,46.5268271 346.371381,46.5290941 L357.68262,46.789238 C357.746103,46.7915051 357.780112,46.8238105 357.784646,46.8861544 C357.815254,47.3429648 357.792015,47.6461826 357.714929,47.7958079 C353.737063,55.4913062 349.771101,63.193039 345.817042,70.9010061 C345.310315,71.8888728 346.629846,71.795357 347.109366,71.4331959 C352.352349,67.4794622 357.595899,63.5257285 362.840015,59.5719947 C363.058803,59.4065001 363.232814,59.2024657 363.362046,58.9598914 C365.582804,54.7998562 367.854007,50.5729431 370.175656,46.279152 C370.205122,46.2216833 370.270938,46.1928539 370.333162,46.2101599 C370.395387,46.2274659 370.436863,46.2861358 370.432421,46.350564 C370.431287,46.3698339 370.43072,46.38627 370.43072,46.3998723 C370.429587,46.4780855 370.46813,46.5177589 370.546349,46.5188924 C373.853113,46.5528982 377.158176,46.5840701 380.461538,46.6124082 C380.621379,46.6141085 380.764214,46.6566157 380.920654,46.6923217 C380.973386,46.7043854 381.01982,46.7345344 381.051586,46.777336 C381.20009,46.982504 381.206892,47.2273453 381.071992,47.51186 C380.570933,48.5717054 380.110684,49.5391687 379.691245,50.4142496 C379.529138,50.75204 379.615293,50.8364875 379.94971,50.6675924 C381.662607,49.7993126 383.346596,48.9531365 385.001678,48.1290641 C388.094754,46.5869039 393.780982,44.2354072 396.049351,48.1766721 C396.238665,48.5065278 396.341258,48.8681221 396.357129,49.2614551 C396.428546,51.0654595 395.727971,52.4647956 394.984884,54.0392612 C392.175779,60.0027341 389.263515,65.915765 386.248091,71.7783542 C386.208414,71.8565673 386.197645,71.9965576 386.215783,72.198325 C386.2838,72.9481515 386.838139,72.8495349 387.344866,72.601293 C390.863616,70.8817362 394.377832,69.1542448 397.887513,67.4188186 C397.938525,67.3938811 397.977068,67.355908 398.003142,67.3048994 C401.267961,60.9560282 404.529947,54.6060235 407.789098,48.2548853 C407.954606,47.9318308 408.385381,47.4319465 409.081423,46.7552323 C409.1245,46.7132919 409.176646,46.6923217 409.237862,46.6923217 L419.916542,46.6923217 C419.974982,46.6923297 420.031245,46.7114816 420.076383,46.7467309 C420.797364,47.2925229 420.435173,47.6954909 420.127395,48.2905913 C416.143862,55.9690868 412.160329,63.6470156 408.176795,71.3243776 C408.149589,71.3753862 408.151289,71.4252612 408.181897,71.4740028 C408.770244,72.4142614 409.445314,72.0129937 410.167995,71.4859048 C413.552978,69.0159548 416.944196,66.5550729 420.341649,64.1032592 C420.379434,64.0760363 420.432053,64.0818824 420.46408,64.1168615 L422.97561,66.8849285 C423.010752,66.9234684 423.007918,66.9591744 422.967108,66.9920466 C417.697485,71.3498819 412.562196,75.2231354 406.865766,78.5352942 C404.981693,79.6302789 402.410648,80.82218 400.169485,80.2865896 C397.334874,79.6098755 396.734623,76.1548926 396.533973,73.686076 C396.479559,73.0195636 395.911617,72.9940593 395.437198,73.3205143 C395.029095,73.6010617 394.559777,73.6656726 394.182283,73.8748079 C390.288305,76.0239705 386.52526,78.2802511 382.263991,79.7782039 C378.706698,81.029615 374.916446,80.1607684 374.639277,75.7944317 C374.448829,72.7883246 375.537102,70.4963379 376.948457,67.8251872 C378.396087,65.0843247 379.855053,62.3496967 381.325355,59.621303 C382.01006,58.352889 382.639218,57.0045615 383.212829,55.5763206 C383.247872,55.4894809 383.235477,55.3906926 383.180065,55.3152008 C383.124654,55.239709 383.034119,55.1982662 382.940761,55.205658 C380.602674,55.3756867 378.001021,56.8379334 376.28359,58.3681916 C375.668035,58.9139837 375.05078,59.4308709 374.615471,60.1398905 C371.340449,65.4668893 368.949649,71.3651844 365.885479,76.8316067 C365.428065,77.6460441 364.382302,79.6438812 363.443667,79.6404806 C360.626626,79.6336795 357.810719,79.6081752 354.995946,79.5639677 C354.21375,79.5503654 353.744432,79.2919218 353.470663,78.5948042 C353.456567,78.5579393 353.458413,78.5167146 353.475764,78.480885 L357.842461,69.6240907 C357.875243,69.5561023 357.859588,69.4743749 357.804048,69.4235664 C357.748509,69.372758 357.666446,69.3650905 357.6027,69.4047537 C357.000749,69.7731492 356.410134,70.2021882 355.830856,70.6918708 C353.098836,72.9997269 350.437102,75.0412047 347.845651,76.8163041 C344.948124,78.8005389 341.54727,80.4855232 337.945766,80.4651198 C335.107754,80.4515175 333.46174,76.7516932 333.330808,74.3950956 C333.296799,73.7727907 332.990722,73.2303991 332.302049,73.6248657 C328.336654,75.8947487 324.410368,78.030309 320.055575,79.8037082 C318.273528,80.5302974 316.58047,80.5206625 314.9764,79.7748033 C312.565195,78.652614 312.286325,76.1531923 312.781149,73.8374016 C312.908114,73.2445682 313.201155,72.4856735 313.66027,71.5607174 C316.438767,65.9565719 319.213864,60.3501593 321.98556,54.7414797 C322.217951,54.2699335 322.132363,53.8244583 321.728795,53.4050542 C321.689119,53.3631138 321.640373,53.3393098 321.582559,53.3336422 C321.315025,53.3064376 321.028786,53.3693482 320.723843,53.522374 C318.076278,54.8587995 314.507082,56.989259 312.582199,59.4954818 C311.735387,60.5972677 310.846063,62.134327 310.121682,63.57447 C308.237609,67.3196352 306.362038,71.0687678 304.494969,74.8218677 C303.705971,76.4116359 302.928876,77.8330757 302.02935,79.1201929 C301.861575,79.3605001 301.603677,79.482354 301.255656,79.4857545 C298.516835,79.5174932 295.780848,79.4545826 293.047696,79.2970227 C292.178778,79.2460141 292.716112,77.6443439 292.930366,77.236275 C294.542371,74.1564887 296.169113,71.0840703 297.810591,68.0190199 C298.16598,67.355908 301.571935,60.9373251 300.369734,60.7264895 C300.264307,60.7072196 300.14301,60.7468929 300.005842,60.8455096 C296.215024,63.5659686 292.509794,66.3980797 288.890152,69.3418431 C288.461644,69.6887016 287.24924,70.5541476 286.944864,71.273369 C286.54583,72.2164614 286.197243,72.9832908 285.899101,73.5738571 C282.803191,79.6960233 279.61149,85.7683145 276.323998,91.7907306 C275.576943,93.1600283 274.999365,94.1342927 274.591263,94.7135237 C271.858677,98.5969789 267.376352,101.873432 262.336286,100.790349 C258.830006,100.037122 255.949483,98.4762586 253.749131,95.6095749 C253.070661,94.7254257 251.696716,93.0472426 251.623597,91.9386556 C251.586188,91.3673592 251.73866,90.8283682 252.081012,90.3216828 C252.112753,90.2740747 252.156965,90.251971 252.213645,90.2553716 L253.874963,90.3488873 C253.937311,90.3522879 253.991725,90.3749584 254.038203,90.4168988 C257.13128,93.2189716 261.923083,95.7592002 265.398755,91.7533243 C265.686694,91.4200681 265.947993,91.0188004 266.182652,90.5495212 C268.217496,86.4642986 270.009179,82.2719579 271.557701,77.9724992 C271.56712,77.9472846 271.560361,77.9188785 271.540596,77.9006064 C271.520831,77.8823342 271.49198,77.8778215 271.467579,77.8891852 C264.470322,81.0245141 259.392848,77.6800499 257.804649,70.5099401 C257.793787,70.4611882 257.762036,70.4196777 257.717826,70.3964284 C257.673616,70.3731792 257.621419,70.370543 257.575091,70.3892198 C257.030955,70.6102571 256.531029,70.8976056 256.020901,71.2801701 C252.501018,73.9275168 249.118869,76.7244887 245.151773,78.6951211 C241.844443,80.335898 237.856942,80.9360992 235.183871,77.7854677 C234.833583,77.372298 234.410176,77.0390417 234.14661,76.6241717 C232.687644,74.332185 232.614526,71.2053575 233.359313,68.6957341 C234.82338,63.7598013 238.521809,60.0531759 242.429389,56.8600372 C243.06705,56.3380491 244.54302,54.7686843 242.692956,54.5544482 C240.906374,54.3481467 239.116958,54.1599816 237.324708,53.9899529 C237.268027,53.9842853 237.215314,53.9950538 237.166568,54.0222584 C235.282495,55.0662345 233.491946,56.5522852 231.783017,57.8683073 C231.739939,57.902313 231.709899,57.9459537 231.692894,57.9992294 C229.075937,66.6638913 222.648324,79.7646016 211.794499,79.6693855 C210.888172,79.6608841 209.975043,79.7271953 209.121428,79.5843712 C207.432905,79.3021236 205.800495,78.7954381 204.458858,77.6834505 C199.583734,73.6401683 199.435797,66.9920466 201.052903,61.3606965 C201.063538,61.3291783 201.048503,61.2947366 201.018159,61.2811046 C200.987814,61.2674725 200.952077,61.2791056 200.935574,61.3079876 C200.832414,61.4678146 200.729255,61.6508788 200.626096,61.8571803 C198.836113,65.441385 196.63066,68.7456091 194.009735,71.7698527 C190.091952,76.2926158 183.834381,80.7320648 177.49859,80.0077426 C177.034941,79.9556005 176.563922,79.9334967 176.085536,79.9414314 C171.212112,80.0196446 167.532389,77.5848338 167.290928,72.4142614 C167.239915,71.3379799 166.457719,71.1220434 165.636413,71.7137433 C162.220255,74.1723581 158.749684,76.6122697 154.978137,78.3941704 C152.492113,79.5690686 149.674506,80.3086934 146.906211,79.6081752 C143.801232,78.8226427 142.687452,76.2314055 143.010533,73.271206 C143.05021,72.9005435 143.163572,72.5191125 143.350619,72.126913 C145.837776,66.9058987 148.329468,61.6877183 150.825695,56.4723718 C151.121569,55.8534673 150.342774,55.7905567 149.936372,55.952084 C146.028791,57.4942442 141.915458,59.0857127 139.914056,63.1578997 C137.893949,67.2703269 135.775217,71.3294784 133.55786,75.3353543 C132.991618,76.358927 132.136304,77.8653811 131.221474,78.7155246 C131.178848,78.7560342 131.122419,78.7790893 131.063334,78.7801355 C128.11026,78.8254765 125.16342,78.8815859 122.222815,78.9484639 C121.467826,78.967167 121.010411,78.68832 120.723039,78.030309 C120.700339,77.9785381 120.701586,77.9199487 120.726439,77.870482 C124.337012,70.6998055 127.948719,63.5313961 131.561559,56.3652537 C131.672087,56.1442164 131.702695,55.8840725 131.638079,55.6630352 C131.622492,55.610182 131.586179,55.5658448 131.537275,55.5399565 C131.488371,55.5140681 131.430963,55.5087927 131.377913,55.525312 C127.919245,56.5998933 124.661227,58.6521395 122.47958,61.5613304 C121.993257,62.2074394 121.424181,63.1845376 120.772351,64.4926249 C118.609408,68.8283564 116.511081,73.199794 114.014855,77.3569954 C113.734851,77.825141 113.43841,78.2524798 113.125531,78.6390117 C113.055668,78.7260986 112.9502,78.7772684 112.838159,78.7784352 C109.779658,78.8022392 106.710955,78.8322776 103.632048,78.8685504 C103.065239,78.874218 102.730822,78.5727005 102.628797,77.9639978 C102.511467,77.260079 102.832848,76.7754973 103.15933,76.163394 C104.538943,73.5857591 105.911754,70.9888543 107.277764,68.3726796 C107.325571,68.2823704 107.32182,68.1734689 107.267912,68.0866629 C107.214003,67.9998568 107.118049,67.9482061 107.015898,67.9510084 C106.2269,67.9731121 103.880311,69.91654 103.186537,70.4725338 C100.147874,72.9039441 97.133017,75.4033658 93.9566197,77.6545456 C93.0315875,78.3108563 92.0680123,78.9008558 91.065894,79.4245442 C90.0405367,79.9601346 88.6257815,79.9788377 87.5239049,79.8836217 C84.5906686,79.6319792 83.4751886,77.2277736 83.6112228,74.563424 C83.6183999,74.4248995 83.5403472,74.2957195 83.4139733,74.236969 C83.2246591,74.1496876 83.0432802,74.1984291 82.8698367,74.3831936 C80.6269737,76.7839987 76.9880602,79.3837373 73.6637257,79.773103 C72.6219309,79.8955237 71.5739012,79.8484824 70.5196365,79.6319792 Z M76.8333214,69.2092207 C76.9676551,71.3022738 78.9588549,71.2121586 80.3396015,70.5847528 C82.6793889,69.5203732 84.6620866,67.587147 86.3149014,65.6641226 C86.9236543,64.9545362 87.529573,64.0862564 88.1326577,63.0592831 C89.5168052,60.703819 90.8040283,58.295646 91.9943271,55.8347642 C92.1813741,55.4470988 92.3973283,54.7975892 92.543565,54.2177914 C92.706806,53.5733826 92.96187,53.0751986 92.938064,52.3219715 C92.8139328,48.484424 88.5951738,49.8735584 86.6243791,50.9362377 C86.3738496,51.0699936 86.1584622,51.259859 85.9782169,51.5058338 C82.5977684,56.1085104 80.3072934,60.9407256 77.445475,66.4088482 C77.0968875,67.077061 76.7891103,68.5308062 76.8333214,69.2092207 Z M178.620872,73.1419842 C180.576363,73.4871425 182.693394,71.8463656 183.55041,70.1698828 C187.669977,62.1127901 190.454709,56.6299317 191.904607,53.7213076 C192.506558,52.5141039 192.231089,51.0739609 190.770422,50.7322033 C189.64814,50.4703591 188.265693,51.181079 187.434184,51.9173032 C187.159849,52.1598775 186.909886,52.5027687 186.684296,52.9459768 C183.892195,58.4186335 181.09726,63.8890231 178.299491,69.3571457 C177.942402,70.052563 177.211218,71.8174608 177.729849,72.636999 C177.894223,72.8977097 178.191231,73.0660381 178.620872,73.1419842 Z M267.670525,70.2548971 C267.456272,71.2597667 267.716437,72.7713234 269.097184,72.7713234 C271.255025,72.773022 273.905991,71.4774034 275.006167,69.5594798 C277.019472,66.0500877 278.963627,62.5027225 280.838631,58.9173843 C282.035731,56.6253976 283.168216,54.7125748 283.059388,52.3627784 C283.057121,52.3072357 283.040117,52.2567938 283.008376,52.2114529 C281.421877,49.8667573 279.051482,50.6114829 277.073886,51.8917989 C276.873236,52.0210207 276.715096,52.1955835 276.599467,52.4154873 C273.763155,57.773658 271.018666,63.1794367 268.366,68.6328234 C267.95223,69.4829669 267.720405,70.0236581 267.670525,70.2548971 Z M209.857713,72.9294484 C210.934083,73.6231654 212.802853,72.9634541 213.765294,72.2255296 C214.052099,72.0056258 214.3185,71.6837049 214.564495,71.2597667 C217.667774,65.9021627 220.725141,59.7590263 223.313191,54.4660332 C223.487768,54.1101065 223.577891,53.7768503 223.583559,53.4662646 C223.651576,50.0469877 220.788057,50.3088319 218.919288,51.8849978 C218.702767,52.0674952 218.522522,52.3180042 218.378552,52.6365246 C217.797006,53.9264755 217.180885,55.1999904 216.530188,56.4570692 C214.262952,60.8370081 211.967943,65.2027781 209.64516,69.5543789 C209.157137,70.4708336 208.813651,72.2578351 209.857713,72.9294484 Z M8.24320383,69.8485286 C8.15648206,71.3974899 10.4639613,71.6508326 11.5148251,71.7494493 C12.9069078,71.8798046 14.3006911,71.9846556 15.6961747,72.0640023 C16.2731862,72.0968746 16.8241245,72.0640023 17.3489896,71.9653857 C21.394305,71.2070578 26.8815824,69.9352432 29.3080916,66.3204333 C29.3307191,66.287257 29.336161,66.2452866 29.3227797,66.2071528 C29.3093983,66.169019 29.2787561,66.1391745 29.2400745,66.1266006 C22.4723756,63.9332305 13.1183276,63.1630006 8.29931791,69.6921022 C8.26602833,69.7375937 8.246546,69.7919036 8.24320383,69.8485286 L8.24320383,69.8485286 Z" id="Shape"></path>
                    <path d="M357.114309,37.6959276 C354.002564,36.7410673 351.783412,33.8374776 352.016834,30.4691779 C352.600389,22.0484287 365.109832,21.8160737 365.958041,29.9620674 C366.485707,35.022997 361.952061,39.1782509 357.114309,37.6959276 Z" id="Path"></path>
                    <path d="M418.89057,37.2820545 C416.314678,35.9826781 414.794314,33.2301629 415.022537,30.3103678 C415.576312,23.2153333 425.129767,21.7165728 428.20909,27.8011689 C429.465991,30.2833327 429.234413,33.4092707 427.445552,35.560254 C425.426791,37.9849681 421.677903,38.6878818 418.89057,37.2820545 Z" id="Path"></path>
                </g>
            </g>
        </g>
    </g>
</svg>