<?xml version="1.0" encoding="UTF-8"?>
<svg width="434px" height="96px" viewBox="0 0 434 96" version="1.1" xmlns="http://www.w3.org/2000/svg" xmlns:xlink="http://www.w3.org/1999/xlink">
    <title>775FDF5C-FFE0-4502-86B7-B477BE1F30D7</title>
    <g id="Page-1" stroke="none" stroke-width="1" fill="none" fill-rule="evenodd" opacity="0.150575184">
        <g id="SRP-by-Sets" transform="translate(-854, -1228)" fill="#FFFFFF" fill-rule="nonzero">
            <g id="Group-4-Copy-2" transform="translate(87, 1189)">
                <g id="ferrari-text" transform="translate(767, 39)">
                    <path d="M14.123381,81.8607761 L14.768069,14.0295799 C14.7680589,13.9240682 14.7264923,13.8229612 14.6526807,13.7489083 C14.5788692,13.6748554 14.478982,13.6340463 14.3753954,13.6356227 L0.491160303,13.7179422 C0.258108511,13.7179422 0.0691827049,13.5283988 0.0691827049,13.2945852 L0.0691827049,0.352797484 C0.0691827049,0.117599161 0.186398704,0 0.420830703,0 L397.78893,0.141118993 C397.845919,0.141051647 397.900493,0.164758173 397.940234,0.206844177 C397.979975,0.248930181 398,0.305816025 398,0.3645574 L397.407978,12.7183493 C397.396256,12.9574676 397.271226,13.0770267 397.032886,13.0770267 L35.8024801,13.6767825 C35.7268427,13.6767324 35.6543851,13.7078784 35.6014559,13.7631933 C35.5485266,13.8185082 35.5195853,13.8933312 35.5211617,13.9707804 C35.7008929,20.3720947 35.9040673,26.779289 36.1306849,33.1923633 C36.2303185,35.9441836 35.8669489,41.918221 40.6845265,40.3953119 C41.1474264,40.2462083 41.4930837,39.8566357 41.5870897,39.3780791 C42.0207889,37.1848548 41.9211553,34.3389551 44.7929473,33.9508779 C47.3560705,33.6059203 49.9328689,33.4060017 52.5233424,33.3511221 C52.7187024,33.3472022 52.8163824,33.4432415 52.8163824,33.6392401 L52.8163824,58.4173833 C52.8164782,58.8976886 52.4334894,59.289771 51.9548449,59.2993771 L43.0640113,59.4992956 C42.8803729,59.5032156 42.7592497,59.4150162 42.7006417,59.2346975 C42.3841585,58.2272647 42.0481393,56.7474753 41.6925841,54.7953292 C41.2413025,52.3081069 36.6874609,52.9843021 36.4999153,56.1124398 C35.9841649,64.6207391 36.2303185,73.2936772 36.2596225,81.8196164 C36.2596225,82.019535 36.3573025,82.1253743 36.5526625,82.1371342 L50.1673009,82.866249 C50.3548465,82.8780089 50.4427585,82.9760082 50.4310369,83.1602469 L49.7511841,95.3493999 C49.7394625,95.5453985 49.6359217,95.6453578 49.4405617,95.6492778 C35.8161553,95.9550356 22.191749,96.0608749 8.56734266,95.9667955 C6.06673468,95.9471957 3.56612669,95.8237166 1.0655187,95.5963582 C0.8879535,95.583065 0.738811727,95.4548113 0.696288302,95.2788404 C-0.235578894,91.4451078 0.0105747051,87.070419 0.0867651048,83.1602469 C0.0867651048,82.9720882 0.180537904,82.8721289 0.368083503,82.860369 L13.830341,82.166534 C14.025701,82.158694 14.123381,82.0567747 14.123381,81.8607761 Z" id="Path"></path>
                    <path d="M407.246062,12.5306336 C403.977695,11.679649 397.824465,7.68185759 402.987454,3.47591169 C408.339334,-0.883089001 419.008748,-0.252503226 425.688581,0.65970338 C437.474163,2.26983987 436.157658,11.8449481 425.322249,13.4856956 C419.258694,14.4081059 413.233298,14.0897519 407.246062,12.5306336 Z" id="Path"></path>
                    <path d="M163.748596,37.27787 L152.243764,48.0737861 C152.078256,48.229151 151.99752,48.4175309 152.001557,48.6389258 C152.249819,62.470283 151.941005,72.4563598 153.049102,79.6983046 C153.709116,83.9747225 157.760028,81.6966852 158.105173,84.341772 C158.428116,86.8703352 158.478575,90.6165705 158.256552,95.580478 C158.248479,95.7669158 158.149578,95.8601347 157.959849,95.8601347 L125.146858,96 C124.513083,96.0038472 124.186104,95.7008858 124.16592,95.0910787 C124.048853,91.6691675 124.099313,88.0413979 124.317299,84.2077698 C124.498954,80.9975433 128.295549,82.7395718 130.196874,82.9900977 C130.390639,83.0172865 130.487522,82.93572 130.487522,82.745398 L130.487522,36.6835994 C130.487772,36.5035901 130.341322,36.3549915 130.154487,36.3456808 L125.328513,36.1417644 C125.126674,36.1339962 124.985387,36.0407772 124.904651,35.8621076 C123.554347,32.7800571 124.105368,27.8511067 124.141699,24.506878 C124.145736,24.3126719 124.246656,24.2155689 124.444458,24.2155689 L151.474757,24 C151.725328,24 151.931243,24.1902252 151.941005,24.4311376 L152.310371,32.168308 C152.320659,32.3457033 152.428925,32.5042017 152.594085,32.5836588 C152.759245,32.6631158 152.955987,32.6513538 153.109654,32.552836 C159.655298,28.305549 165.401658,24.5010518 173.564034,24.3961805 C180.981622,24.2971354 185.880258,27.5947547 186.358617,34.9765279 C186.976245,44.558656 187.147808,53.6610951 186.873307,62.2838452 C186.865234,62.5130083 186.740093,62.631474 186.497886,62.6392423 L165.171562,63.2626438 C165.08322,63.265791 164.997202,63.2350135 164.932461,63.1770929 C164.867721,63.1191722 164.829571,63.0388614 164.826417,62.9538561 L164.142182,37.4293507 C164.130072,37.0914321 163.998876,37.0409386 163.748596,37.27787 Z" id="Path"></path>
                    <path d="M198.88003,36.2409326 L195.38258,36.2409326 C193.926769,36.2409326 193.196917,35.5142487 193.193024,34.0608808 L193.169669,24.373057 C193.169669,24.1670233 193.336973,24 193.543353,24 L219.718758,24 C219.861619,24 219.97833,24.1138906 219.981505,24.2564767 L220.197541,32.265544 C220.202064,32.4076419 220.281587,32.5370012 220.405895,32.6044728 C220.530204,32.6719444 220.680217,32.667172 220.798939,32.5919689 C228.926568,27.5556995 233.772784,23.5861399 243.552798,24.3497409 C246.810857,24.6003886 249.963817,27.7713731 252.223438,29.7765544 C252.741146,30.2351036 253,30.8102332 253,31.501943 L253,62.634715 C253,62.7846723 252.94033,62.9284877 252.834116,63.0345235 C252.727901,63.1405593 252.583844,63.2001295 252.433635,63.2001295 L232.616699,63.2001295 C232.394824,63.2001295 232.289725,63.0913212 232.301403,62.8737047 C232.353952,61.9119171 232.108722,61.0550518 232.126239,60.1981865 C232.285833,53.8523316 232.171003,47.5142487 231.781749,41.1839378 C231.729199,40.3270725 231.472291,39.4177461 231.285449,38.5667099 C231.238739,38.3529793 231.106392,38.263601 230.88841,38.2985751 C228.319332,38.7240933 221.931669,46.2668394 220.115797,48.4585492 C219.991236,48.6101036 219.930902,48.7830311 219.934794,48.9773316 C220.02043,55.0705959 220.289016,65.0110104 220.740551,78.7985751 C220.826187,81.382772 222.054284,82.6981865 224.424842,82.7448187 C224.632733,82.7488508 224.830665,82.8444639 224.967852,83.0071244 C226.737013,85.1463731 226.065549,92.8115285 226.030516,95.6968912 C226.030516,95.8989637 225.92931,96 225.726898,96 L193.374028,95.9708549 C193.11712,95.9708549 192.992558,95.8426166 193,95.5861399 C193.027591,93.8452073 193.105442,90.2448187 193.233896,84.7849741 C193.261144,83.7163212 193.397383,82.8944301 193.642613,82.3193005 C193.732224,82.1161129 193.944585,81.9970094 194.162268,82.0278497 L198.932579,82.7098446 C199.092173,82.7331606 199.17197,82.6632124 199.17197,82.5 L199.17197,36.5323834 C199.17197,36.3380829 199.074657,36.2409326 198.88003,36.2409326 Z" id="Path"></path>
                    <path d="M332.837902,36.2565598 C328.474048,36.2857143 327.099376,37.0962099 327.058428,31.9708455 C327.035029,29.4402332 327.031129,26.9135083 327.046729,24.3906706 C327.046729,24.180758 327.152023,24.0758017 327.362611,24.0758017 L353.498938,24 C353.747701,24 353.949363,24.201015 353.949363,24.4489796 L353.949363,32.1924198 C353.949363,32.4645287 354.064406,32.526725 354.294493,32.3790087 C361.717725,27.5918367 367.210565,24.2915452 376.318502,24.1924198 C380.740853,24.1399417 383.44925,27.4285714 386.836209,31.2069971 C386.945403,31.3313897 387,31.4752187 387,31.638484 L387,62.9446064 C387,63.1389699 386.902505,63.2361516 386.707516,63.2361516 L366.537853,63.2361516 C366.354563,63.2361516 366.260969,63.1428571 366.257069,62.9562682 C366.169324,54.9387755 366.508605,46.6588921 365.274324,38.7346939 C365.184629,38.159378 364.862897,37.9650146 364.309129,38.1516035 C361.109359,39.2361516 356.417923,44.9620991 354.142402,47.5685131 C354.013709,47.7162293 353.949363,47.8853256 353.949363,48.0758017 L353.949363,82.4489796 C353.949363,82.6239067 354.037108,82.7152575 354.212598,82.7230321 L358.453609,82.8979592 C359.268811,82.9346027 359.915928,83.594941 359.933575,84.4081633 L360.155863,95.6151603 C360.159763,95.8717201 360.03302,96 359.775634,96 L327.339212,95.8542274 C327.183221,95.8542274 327.103275,95.7745384 327.099376,95.6151603 C326.951184,89.9358601 326.968733,85.9475219 327.152023,83.6501458 C327.403558,80.5189504 331.404733,83.8134111 331.948752,80.2915452 C332.288033,78.0991254 332.479122,75.898931 332.52202,73.6909621 C332.759907,61.3177843 332.970495,48.9446064 333.153784,36.5714286 C333.153784,36.361516 333.04849,36.2565598 332.837902,36.2565598 Z" id="Path"></path>
                    <path d="M407.722526,36.209127 C405.159035,36.1566021 401.081008,37.2129367 401.030523,33.7521277 C400.985648,30.5695064 400.998737,27.5833671 401.069789,24.79371 C401.084747,24.3034773 401.325951,24.058361 401.7934,24.058361 L433.54816,24 C433.768796,24 433.879114,24.1167221 433.879114,24.3501662 L433.794973,34.4524601 C433.788907,35.3865021 433.06339,36.1439359 432.162641,36.1566021 L428.342646,36.209127 C428.110791,36.2130178 427.996733,36.3355759 428.000473,36.5768015 C428.1164,49.2178001 428.310859,61.8412904 428.58385,74.4472724 C428.643683,77.1941315 428.916673,79.6005512 429.402821,81.6665316 C429.451917,81.8687523 429.599131,82.0285752 429.789868,82.086731 L432.617001,82.9271298 C432.769247,82.9722919 432.900509,83.0716135 432.987221,83.2072627 C434.496147,85.5475399 433.895942,92.7201102 433.811801,95.6381616 C433.804322,95.8793872 433.682786,96 433.447191,96 L401.456837,95.9824917 C401.228722,95.9824917 401.109055,95.8638243 401.097836,95.6264894 C400.933294,92.1326092 400.976299,88.6776364 401.226852,85.2615709 C401.484884,81.689876 404.368111,82.6703412 406.735273,82.5827997 C406.95217,82.5750182 407.083056,82.4602415 407.127931,82.2384696 C407.587901,79.9351544 407.834714,77.8030315 407.86837,75.842101 C408.081527,63.9831401 408.128272,50.8733079 408.008605,36.5126044 C408.004865,36.3141769 407.909506,36.2130178 407.722526,36.209127 Z" id="Path"></path>
                    <path d="M78.7437356,66.0168015 L79.3863182,84.144788 C79.3957401,84.4700442 79.6419771,84.7391194 79.9646426,84.7767514 C83.5280553,85.1980603 87.2180374,85.4925864 91.0345888,85.6603298 C98.9441968,86.0114206 97.2092237,77.5910937 97.1332821,72.1725929 C97.1332821,71.9658395 97.2345375,71.8624627 97.4370484,71.8624627 L117.579093,71.8624627 C117.781604,71.8624627 117.884807,71.963889 117.888701,72.1667414 C117.900384,74.8428332 117.894543,77.4662615 117.871176,80.037026 C117.777709,90.4468672 109.774635,95.5435348 100.176787,95.8244074 C92.2632846,96.0623689 83.4754804,96.0584679 73.8133743,95.8127044 C66.7021266,95.629357 61.8087625,92.3349553 59.1332821,85.9294994 C58.6308993,84.7240878 58.327133,82.0226394 58.2219831,77.8251542 C57.9260056,65.7437309 57.9260056,53.6623076 58.2219831,41.5808843 C58.327133,37.2800224 58.2628747,33.5057967 60.9734051,30.3576829 C63.9682296,26.8818843 67.9464002,24.9645386 72.907917,24.6056458 C84.0576992,23.8020381 94.6700487,23.7981371 104.744965,24.5939428 C115.838278,25.4658182 117.801076,33.5760149 117.853651,43.0086534 C117.89649,50.4634806 117.94517,57.7466635 117.999849,64.858202 C118.007481,65.4277492 117.725134,65.7125229 117.152652,65.7125229 L79.0299769,65.7183744 C78.8313605,65.7183744 78.7359467,65.8178501 78.7437356,66.0168015 Z M79.0942352,57.1225022 L96.9813989,57.063987 C97.0749604,57.063987 97.1508071,56.9880125 97.1508071,56.8942932 L97.0865488,39.1173974 C97.0827803,37.7060597 96.580188,36.3538125 95.6894308,35.358389 C94.7986737,34.3629654 93.5927872,33.8059827 92.337279,33.810053 L83.5747886,33.8451845 C80.9628036,33.8536816 78.8527002,36.2397366 78.8605469,39.1759126 L78.924827,56.9528083 C78.924827,57.0465276 79.0006737,57.1225022 79.0942352,57.1225022 L79.0942352,57.1225022 Z" id="Shape"></path>
                    <path d="M295.798831,52.3498856 C296.366956,47.6944743 296.514988,43.0332046 296.242928,38.3660767 C296.074891,35.4720668 295.036663,34.0426368 292.060007,33.7731541 C280.429444,32.7127982 281.209615,38.079019 281.359649,46.8196319 C281.363649,47.0227203 281.261627,47.1242645 281.053581,47.1242645 L260.517055,47.1242645 C260.30901,47.1242645 260.196985,47.0227203 260.180981,46.8196319 C259.784894,42.2071816 260.03895,38.0673024 260.943149,34.3999943 C262.935588,26.3389464 269.290989,24.3939843 277.050699,24.1713682 C285.140482,23.9409409 293.230264,23.9428937 301.320047,24.1772265 C304.37272,24.267054 306.919281,24.5013868 308.959731,24.8802248 C312.038409,25.4543402 314.76301,28.8404489 317.061516,30.9201524 C317.209549,31.052941 317.285566,31.2150211 317.289566,31.4063929 C317.457603,45.3452881 317.727663,59.2724667 318.099745,73.1879286 C318.175762,75.9413389 318.489831,78.6654575 319.041953,81.3602845 C319.075917,81.5271359 319.185526,81.6726527 319.342019,81.7586503 L322.090624,83.2642384 C322.209115,83.3275073 322.296013,83.4377825 322.330677,83.568871 C323.218873,87.1834543 323.008827,91.8349601 322.8888,95.5198431 C322.879103,95.7847347 322.65622,95.9945361 322.384689,95.994367 C308.949729,96.0138947 295.52477,95.9826504 282.109814,95.9006339 C271.625503,95.8303341 263.277664,95.0453192 261.189204,83.4692796 C260.102964,77.4586436 258.026507,56.1343601 267.256541,54.5936221 C276.438564,53.052884 286.142703,53.0411674 295.450754,52.6603766 C295.6588,52.6525655 295.774825,52.5490685 295.798831,52.3498856 Z M281.5937,77.6226766 C281.82175,81.0732269 281.431664,84.9397178 286.31074,85.0275926 C289.643474,85.0861758 292.966206,85.1076563 296.278936,85.0920341 C296.486982,85.0881286 296.587004,84.9865844 296.579002,84.7874015 L295.858844,61.6177473 C295.854843,61.4263756 295.754821,61.318973 295.558778,61.2955397 C291.217821,60.8034409 287.99311,60.682369 285.884646,60.9323239 C280.105372,61.611889 281.329642,73.7093191 281.5937,77.6226766 Z" id="Shape"></path>
                </g>
            </g>
        </g>
    </g>
</svg>