<?xml version="1.0" encoding="UTF-8"?>
<svg width="13px" height="18px" viewBox="0 0 13 18" version="1.1" xmlns="http://www.w3.org/2000/svg" xmlns:xlink="http://www.w3.org/1999/xlink">
    <title>3805DE9E-AC0C-493A-BF87-7E2AACC06E8C</title>
    <g id="Page-1" stroke="none" stroke-width="1" fill="none" fill-rule="evenodd">
        <g id="Home" transform="translate(-120, -3576)" fill="#238EC2" fill-rule="nonzero">
            <g id="Group-8" transform="translate(120, 3559)">
                <g id="Group-6" transform="translate(0, 12)">
                    <g id="ion-android-pin---Ionicons" transform="translate(0, 5)">
                        <path d="M1.909375,1.84821429 C3.18229167,0.616071429 4.7125,0 6.5,0 C8.2875,0 9.81770833,0.616071429 11.090625,1.84821429 C12.3635417,3.08035714 13,4.56696429 13,6.30803571 C13,7.70089286 12.4583333,9.375 11.375,11.3303571 C10.2916667,13.2857143 9.20833333,14.8928571 8.125,16.1517857 L6.5,18 C6.31041667,17.8125 6.0734375,17.5513393 5.7890625,17.2165179 C5.5046875,16.8816964 4.99010417,16.2321429 4.2453125,15.2678571 C3.50052083,14.3035714 2.84375,13.3660714 2.275,12.4553571 C1.70625,11.5446429 1.18489583,10.5133929 0.7109375,9.36160714 C0.236979167,8.20982143 0,7.19196429 0,6.30803571 C0,4.56696429 0.636458333,3.08035714 1.909375,1.84821429 Z M4.834375,7.91517857 C5.29479167,8.34375 5.85,8.55803571 6.5,8.55803571 C7.15,8.55803571 7.6984375,8.33705357 8.1453125,7.89508929 C8.5921875,7.453125 8.815625,6.92410714 8.815625,6.30803571 C8.815625,5.69196429 8.5921875,5.16294643 8.1453125,4.72098214 C7.6984375,4.27901786 7.15,4.05803571 6.5,4.05803571 C5.85,4.05803571 5.3015625,4.27901786 4.8546875,4.72098214 C4.4078125,5.16294643 4.184375,5.69196429 4.184375,6.30803571 C4.184375,6.92410714 4.40104167,7.45982143 4.834375,7.91517857 Z" id="Shape"></path>
                    </g>
                </g>
            </g>
        </g>
    </g>
</svg>