<?xml version="1.0" encoding="UTF-8"?>
<svg width="70px" height="70px" viewBox="0 0 70 70" version="1.1" xmlns="http://www.w3.org/2000/svg" xmlns:xlink="http://www.w3.org/1999/xlink">
    <title>4DF2CBB8-19AC-4F35-83FF-4719DF8E58F5</title>
    <g id="Page-1" stroke="none" stroke-width="1" fill="none" fill-rule="evenodd" opacity="0.4">
        <g id="SRP-w-sliders" transform="translate(-1283, -831)" fill="#FFFFFF">
            <g id="Group-4" transform="translate(87, 638)">
                <path d="M1231,263 C1211.66667,263 1196,247.333333 1196,228 C1196,208.666667 1211.66667,193 1231,193 C1250.33333,193 1266,208.666667 1266,228 C1266,247.333333 1250.33333,263 1231,263 Z M1247.604,227.548643 L1234.602,214.393665 C1234.0905,213.868778 1233.249,213.868778 1232.721,214.393665 C1232.2095,214.918552 1232.2095,215.771493 1232.721,216.29638 L1243.4625,227.154977 L1216.32,227.154977 C1215.594,227.154977 1215,227.761878 1215,228.5 C1215,229.238122 1215.594,229.845023 1216.32,229.845023 L1243.4625,229.845023 L1232.721,240.70362 C1232.2095,241.228507 1232.2095,242.081448 1232.721,242.606335 C1232.985,242.868778 1233.3315,243 1233.6615,243 C1234.008,243 1234.3545,242.868778 1234.602,242.606335 L1247.604,229.451357 C1248.132,228.926471 1248.132,228.073529 1247.604,227.548643 Z" id="next"></path>
            </g>
        </g>
    </g>
</svg>