<?xml version="1.0" encoding="UTF-8"?>
<svg width="597px" height="42px" viewBox="0 0 597 42" version="1.1" xmlns="http://www.w3.org/2000/svg" xmlns:xlink="http://www.w3.org/1999/xlink">
    <title>B80FD58D-8730-4E1C-92F3-E565149DE453</title>
    <g id="Page-1" stroke="none" stroke-width="1" fill="none" fill-rule="evenodd" opacity="0.152701">
        <g id="SRP-by-Sets" transform="translate(-691, -2035)" fill="#FFFFFF" fill-rule="nonzero">
            <g id="Group-4-Copy-3" transform="translate(87, 1970)">
                <g id="Porsche-Text" transform="translate(604, 65)">
                    <path d="M9.55449036,30.1787534 L9.5789264,41.4813799 C9.5789264,41.8271266 9.40787414,42 9.06576963,42 L0.407267279,42 C0.13575576,42 0,41.8627989 0,41.5883967 L0,0.43629949 C0,0.156409251 0.138470875,0.0164641317 0.415412624,0.0164641317 C20.9253928,0.0164641317 41.4217974,0.0109760878 61.9046264,0 C66.5963454,0 69.6861465,0.318306546 71.1740297,0.954919639 C77.5273992,3.67150137 77.2178761,11.8871031 76.8187541,17.9129753 C76.061237,29.2238338 68.9014782,29.618973 59.1189182,29.6354371 C42.7467736,29.6628773 26.4017801,29.6656213 10.0839378,29.6436691 C9.79153207,29.6436691 9.55449036,29.8832345 9.55449036,30.1787534 Z M64.5029916,21.1975696 C69.3413269,21.1811054 69.3739083,8.4872599 63.9328174,8.47079577 C45.9261735,8.42689142 27.9168144,8.42689142 9.90474022,8.47079577 C9.65494963,8.47628381 9.53005433,8.60250882 9.53005433,8.8494708 L9.58707175,20.8106625 C9.58707175,21.0740886 9.71739727,21.2058016 9.97804833,21.2058016 C28.1530294,21.2277538 46.3280105,21.2250098 64.5029916,21.1975696 Z" id="Shape"></path>
                    <path d="M165,31.5907306 C165,37.3396113 160.406854,42 154.740921,42 L98.2590794,42 C92.5931463,42 88,37.3396113 88,31.5907306 L88,10.4092694 C88,4.66038867 92.5931463,0 98.2590794,0 L154.740921,0 C160.406854,0 165,4.66038867 165,10.4092694 L165,31.5907306 Z M156.057855,13.1146897 C156.057855,10.5363486 153.997854,8.4461901 151.456715,8.4461901 L102.12859,8.4461901 C99.58745,8.4461901 97.5274493,10.5363486 97.5274493,13.1146897 L97.5274493,28.9183032 C97.5274493,31.4966444 99.58745,33.5868028 102.12859,33.5868028 L151.456715,33.5868028 C153.997854,33.5868028 156.057855,31.4966444 156.057855,28.9183032 L156.057855,13.1146897 Z" id="Shape"></path>
                    <path d="M245.077696,27.6055412 C249.871417,30.3543676 251.577656,36.156531 251.894529,41.4319731 C251.903519,41.575095 251.853585,41.7155961 251.756599,41.8200739 C251.659613,41.9245518 251.524238,41.9836738 251.382658,41.9833844 L243.257707,41.9833844 C242.921876,41.9833844 242.735002,41.8160407 242.697086,41.4813533 C241.843966,33.5476149 238.967734,29.6465859 230.729034,29.6465859 C215.410794,29.6465859 200.095263,29.6410993 184.78244,29.6301259 C184.495359,29.6301259 184.351818,29.7755229 184.351818,30.0663169 L184.351818,41.5801135 C184.351794,41.6928719 184.307859,41.8008969 184.229912,41.8798523 C184.151964,41.9588078 184.04656,42.0020526 183.937445,41.9999251 L175.487497,41.9422343 C175.162499,41.9367476 175,41.7694039 175,41.4402032 L175.008125,0.430018493 C175.008125,0.155684526 175.143541,0.0185175427 175.414372,0.0185175427 C197.02674,0.00205750475 218.622858,-0.00342917458 240.202726,0.00205750475 C252.975148,0.00205750475 251.959529,6.82474325 251.992029,17.0793469 C252.008279,22.5111595 250.480788,25.762017 245.175196,26.9800598 C245.040884,27.0145623 244.938947,27.1271236 244.917519,27.2645928 C244.89609,27.4020621 244.959456,27.5369413 245.077696,27.6055412 Z M184.173069,8.9233981 L184.156819,20.6429452 C184.156819,20.9338452 184.389629,21.1696664 184.676816,21.1696664 L239.211482,21.2684277 C240.129984,21.2690649 241.010822,20.9814733 241.660016,20.4689861 C242.30921,19.9564989 242.673518,19.2611461 242.672711,18.5360603 L242.688961,11.2278034 C242.68728,9.71969543 241.138127,8.49676167 239.227732,8.49543711 L184.693066,8.39667688 C184.405879,8.39667688 184.173069,8.632498 184.173069,8.9233981 L184.173069,8.9233981 Z" id="Shape"></path>
                    <path d="M267.897473,22.5544411 C261.58929,17.3268752 263.190723,4.01137715 270.880853,1.11813313 C272.208606,0.619486903 274.406174,0.342765646 277.473555,0.287969358 C298.885609,-0.123002805 318.590552,0.715380407 339.027114,0 C339.152796,-0.00417284728 339.274874,0.0432109346 339.365319,0.131561505 C339.455765,0.219912076 339.506808,0.341639618 339.506731,0.46879711 L339.531118,7.95670992 C339.536537,8.30740616 339.365826,8.4854941 339.018985,8.49097373 C318.793779,8.51289224 298.568574,8.51563206 278.343368,8.49919317 C271.417374,8.49097373 271.953894,16.6611003 276.977679,16.6775392 C294.753315,16.7378151 312.531661,16.8474077 330.312716,17.0063169 C343.351796,17.1131697 344.546774,38.3850889 333.418033,41.4345023 C332.388347,41.719443 329.421225,41.8728726 324.516667,41.8947911 C304.909273,41.9824652 285.29646,42.015343 265.678228,41.9934244 C265.418097,41.9934244 265.288031,41.8619134 265.288031,41.5988912 L265.344935,34.0452228 C265.344935,33.7219247 265.504807,33.5602757 265.824552,33.5602757 C286.326146,33.5493164 306.825032,33.5958933 327.321207,33.7000062 C332.531961,33.732884 331.881633,25.1435658 328.28857,25.1435658 C311.851526,25.154525 295.414482,25.1463056 278.977438,25.1189074 C273.994299,25.1189074 271.214146,25.2997352 267.897473,22.5544411 Z" id="Path"></path>
                    <path d="M362.233282,41.9314355 C353.697226,41.8985246 350.176518,36.8466949 350.060268,29.0221184 C349.977232,22.9829605 349.98,16.960258 350.068571,10.954011 C350.193125,2.24083903 355.515705,0.29086569 363.387477,0.208588334 C383.371371,0.00563752254 403.767675,-0.0492140481 424.576389,0.044033622 C424.79785,0.0485128957 424.975006,0.227708026 424.97496,0.447192666 L424.97496,7.83569923 C424.97496,8.24708601 424.767371,8.4527794 424.352193,8.4527794 L362.283104,8.4527794 C360.484,8.4527794 359.584448,9.34411742 359.584448,11.1267935 L359.584448,31.1777851 C359.584448,32.7575103 360.381589,33.547373 361.975872,33.547373 L424.352193,33.547373 C424.628978,33.547373 424.770139,33.6845019 424.775674,33.9587597 L425,41.4295437 C425.005406,41.7751086 424.833799,41.9506336 424.48505,41.9561187 C403.715086,42.0219406 382.964497,42.0137129 362.233282,41.9314355 Z" id="Path"></path>
                    <path d="M442.79463,25.0188235 L442.79463,41.6870588 C442.79463,41.8598915 442.652931,42 442.478137,42 L433.316493,42 C433.141699,42 433,41.8598915 433,41.6870588 L433.058301,0.312941176 C433.058301,0.229944016 433.091646,0.150346203 433.151,0.0916583485 C433.210354,0.0329704936 433.290855,0 433.374795,0 L442.478137,0 C442.652931,0 442.79463,0.140108537 442.79463,0.312941176 L442.79463,16.1164706 C442.79463,16.2893032 442.936329,16.4294118 443.111123,16.4294118 L498.697315,16.4047059 C498.872109,16.4047059 499.013808,16.2645973 499.013808,16.0917647 L499.013808,0.312941176 C499.013808,0.140108537 499.155507,0 499.330301,0 L508.516932,0 C508.691726,0 508.833425,0.140108537 508.833425,0.312941176 L509,41.6870588 C509,41.8598915 508.858301,42 508.683507,42 L499.313644,42 C499.138849,42 498.997151,41.8598915 498.997151,41.6870588 L499.022137,25.0188235 C499.022137,24.8459909 498.880438,24.7058824 498.705644,24.7058824 L443.111123,24.7058824 C442.936329,24.7058824 442.79463,24.8459909 442.79463,25.0188235 L442.79463,25.0188235 Z" id="Path"></path>
                    <path d="M529.555276,33.5062647 L596.741312,33.5062647 C596.884182,33.5062647 597,33.624066 597,33.7693814 L597,41.7368833 C597,41.8821986 596.884182,42 596.741312,42 L520.258688,41.7615505 C520.115818,41.7615505 520,41.6437492 520,41.4984338 L520,0.26311668 C520,0.11780135 520.115818,0 520.258688,0 L596.741312,0 C596.884182,0 597,0.11780135 597,0.26311668 L597,8.16483947 C597,8.3101548 596.884182,8.42795615 596.741312,8.42795615 L529.555276,8.42795615 C529.412406,8.42795615 529.296588,8.5457575 529.296588,8.69107283 L529.296588,16.1487862 C529.296588,16.2941015 529.412406,16.4119029 529.555276,16.4119029 L596.741312,16.5845732 C596.884182,16.5845732 597,16.7023746 597,16.8476899 L597,24.5767424 C597,24.7220577 596.884182,24.839859 596.741312,24.839859 L529.555276,24.880971 C529.412406,24.880971 529.296588,24.9987724 529.296588,25.1440877 L529.296588,33.243148 C529.296588,33.3884633 529.412406,33.5062647 529.555276,33.5062647 Z" id="Path"></path>
                </g>
            </g>
        </g>
    </g>
</svg>