<?xml version="1.0" encoding="UTF-8"?>
<svg width="70px" height="70px" viewBox="0 0 70 70" version="1.1" xmlns="http://www.w3.org/2000/svg" xmlns:xlink="http://www.w3.org/1999/xlink">
    <title>5D33E687-F47E-417F-8945-19373572D723</title>
    <g id="Page-1" stroke="none" stroke-width="1" fill="none" fill-rule="evenodd" opacity="0.4">
        <g id="SRP-w-sliders" transform="translate(-87, -831)" fill="#FFFFFF">
            <g id="Group-4" transform="translate(87, 638)">
                <path d="M35,263 C15.6666667,263 0,247.333333 0,228 C0,208.666667 15.6666667,193 35,193 C54.3333333,193 70,208.666667 70,228 C70,247.333333 54.3333333,263 35,263 Z M51.604,227.548643 L38.602,214.393665 C38.0905,213.868778 37.249,213.868778 36.721,214.393665 C36.2095,214.918552 36.2095,215.771493 36.721,216.29638 L47.4625,227.154977 L20.32,227.154977 C19.594,227.154977 19,227.761878 19,228.5 C19,229.238122 19.594,229.845023 20.32,229.845023 L47.4625,229.845023 L36.721,240.70362 C36.2095,241.228507 36.2095,242.081448 36.721,242.606335 C36.985,242.868778 37.3315,243 37.6615,243 C38.008,243 38.3545,242.868778 38.602,242.606335 L51.604,229.451357 C52.132,228.926471 52.132,228.073529 51.604,227.548643 Z" id="next-copy" transform="translate(35, 228) scale(-1, 1) translate(-35, -228)"></path>
            </g>
        </g>
    </g>
</svg>