<?xml version="1.0" encoding="UTF-8"?>
<svg width="26px" height="26px" viewBox="0 0 26 26" version="1.1" xmlns="http://www.w3.org/2000/svg" xmlns:xlink="http://www.w3.org/1999/xlink">
    <title>93E3096A-493A-42E5-943D-54E69E549BDB</title>
    <g id="Page-1" stroke="none" stroke-width="1" fill="none" fill-rule="evenodd">
        <g id="Home" transform="translate(-1330, -54)" fill="#FFFFFF" fill-rule="nonzero">
            <g id="search" transform="translate(996, 41)">
                <g id="search---anticon" transform="translate(334, 13)">
                    <path d="M25.7098214,24.2008929 L19.7321429,18.2522321 C21.4345238,16.1822917 22.2857143,13.8125 22.2857143,11.1428571 C22.2857143,8.06696429 21.1975446,5.44084821 19.0212054,3.26450893 C16.8448661,1.08816964 14.21875,0 11.1428571,0 C8.06696429,0 5.44084821,1.08816964 3.26450893,3.26450893 C1.08816964,5.44084821 0,8.06696429 0,11.1428571 C0,14.21875 1.08816964,16.8448661 3.26450893,19.0212054 C5.44084821,21.1975446 8.06696429,22.2857143 11.1428571,22.2857143 C13.8125,22.2857143 16.1822917,21.4345238 18.2522321,19.7321429 L24.2299107,25.7098214 C24.4233631,25.9032738 24.6651786,26 24.9553571,26 C25.2455357,26 25.4970238,25.9032738 25.7098214,25.7098214 C25.9032738,25.4970238 26,25.2455357 26,24.9553571 C26,24.6651786 25.9032738,24.4136905 25.7098214,24.2008929 Z M14.6540179,19.5 C13.5513393,19.9642857 12.3809524,20.1964286 11.1428571,20.1964286 C9.9047619,20.1964286 8.734375,19.9642857 7.63169643,19.5 C6.5483631,19.0357143 5.5859375,18.3828125 4.74441964,17.5412946 C3.90290179,16.6997768 3.25967262,15.7373512 2.81473214,14.6540179 C2.33110119,13.5513393 2.08928571,12.3809524 2.08928571,11.1428571 C2.08928571,9.9047619 2.33110119,8.734375 2.81473214,7.63169643 C3.25967262,6.5483631 3.90290179,5.5859375 4.74441964,4.74441964 C5.5859375,3.90290179 6.5483631,3.25 7.63169643,2.78571429 C8.734375,2.32142857 9.9047619,2.08928571 11.1428571,2.08928571 C12.3809524,2.08928571 13.5513393,2.32142857 14.6540179,2.78571429 C15.7373512,3.25 16.6997768,3.90290179 17.5412946,4.74441964 C18.3828125,5.5859375 19.0357143,6.5483631 19.5,7.63169643 C19.9642857,8.734375 20.1964286,9.9047619 20.1964286,11.1428571 C20.1964286,12.3809524 19.9642857,13.5513393 19.5,14.6540179 C19.0357143,15.7373512 18.3828125,16.6997768 17.5412946,17.5412946 C16.6997768,18.3828125 15.7373512,19.0357143 14.6540179,19.5 Z" id="Shape"></path>
                </g>
            </g>
        </g>
    </g>
</svg>