<?xml version="1.0" encoding="UTF-8"?>
<svg width="512px" height="151px" viewBox="0 0 512 151" version="1.1" xmlns="http://www.w3.org/2000/svg" xmlns:xlink="http://www.w3.org/1999/xlink">
    <title>4579C526-A6D1-4936-8AB6-F95FCA0031C4</title>
    <g id="Page-1" stroke="none" stroke-width="1" fill="none" fill-rule="evenodd" opacity="0.152933">
        <g id="SRP-by-Sets" transform="translate(-797, -436)" fill="#FFFFFF" fill-rule="nonzero">
            <g id="Group-4-Copy" transform="translate(87, 408)">
                <g id="srt-hellcat" transform="translate(710, 28)">
                    <path d="M443.809442,6.91814993 C471.207862,18.0979528 501.231892,39.0303497 511.239902,67.4046214 C512.603856,71.2558199 512.132155,74.7558798 509.8248,77.904801 C509.492671,78.3679902 509.319243,78.9162766 509.330367,79.4679345 C509.387198,83.4210766 509.71682,89.3168085 510.319233,97.1551302 C511.3081,110.067972 502.817488,121.825455 492.093402,129.131405 C491.36596,129.629796 491.07612,129.442899 491.223882,128.570716 L492.570786,120.856992 C492.624744,120.516923 492.850051,120.228243 493.167516,120.092416 L495.759028,118.954047 C496.113788,118.799918 496.31171,118.41921 496.233436,118.041508 C496.155162,117.663806 495.822094,117.39238 495.435089,117.390913 L482.528677,117.119064 C482.074026,117.107737 481.698939,117.271979 481.403415,117.611791 C477.902601,121.712185 473.884621,125.234899 469.349475,128.179933 C469.053351,128.365692 468.673393,128.352256 468.391227,128.146047 C468.10906,127.939839 467.981994,127.582741 468.070768,127.245451 C468.877774,124.379706 469.667731,121.412018 470.440638,118.342386 C471.190812,115.386025 474.021016,112.9054 470.167847,109.966029 C469.667731,109.580909 469.17898,109.592236 468.701597,110.00001 L463.416276,114.485524 C463.189193,114.676722 462.878561,114.736219 462.596534,114.642535 C462.314507,114.54885 462.101824,114.315516 462.035273,114.026778 C461.171436,110.334158 461.44991,106.800117 462.870695,103.424655 C463.109387,102.846975 463.035506,102.314604 462.649052,101.82754 L459.78475,98.2765086 C459.011842,97.3023819 458.585607,97.4383066 458.506043,98.6842826 C458.39238,100.700498 457.426246,102.076735 455.607641,102.812994 C455.060096,103.034472 454.440165,102.988356 453.931684,102.68832 C453.423202,102.388285 453.084542,101.868774 453.016129,101.283842 L452.078411,93.4002116 C451.987481,92.6752801 451.629443,92.1315815 451.004298,91.7691158 C446.173629,88.8807169 440.916724,87.7423479 435.233583,88.3540088 C434.83607,88.3956669 434.481878,88.6225757 434.278816,88.9656698 L429.181039,97.1721208 C429.032174,97.4170751 428.993562,97.7131314 429.074647,97.9878697 C429.155732,98.2626079 429.349036,98.4906889 429.607274,98.6163203 L432.079441,99.7886704 C432.395728,99.9449669 432.602462,100.260897 432.616752,100.609785 C432.631041,100.958673 432.450546,101.283394 432.147638,101.453747 C428.601359,103.492617 427.106693,106.59623 427.66364,110.764586 C427.728284,111.249766 428.041063,111.658871 428.482013,111.834993 L432.147638,113.398127 C432.407626,113.507882 432.590463,113.745894 432.628925,114.02465 C432.667387,114.303407 432.555796,114.581763 432.335182,114.757373 L427.288553,118.716179 C426.809439,119.089621 426.590168,119.705434 426.725922,120.296303 L428.175123,126.973601 C428.310882,127.579833 428.886384,127.984236 429.504978,127.908083 C434.778932,127.262441 439.308395,125.127292 443.093366,121.502634 C443.496471,121.102551 444.135816,121.065246 444.583018,121.415715 C445.03022,121.766184 445.144573,122.394158 444.849457,122.878871 L439.785779,131.578049 C439.676028,131.773862 439.665069,132.009834 439.756338,132.211955 C439.847607,132.414076 440.029927,132.557589 440.246113,132.597484 L449.197059,134.483439 C449.445147,134.538337 449.69732,134.409512 449.797427,134.176735 C449.897534,133.943958 449.817232,133.673135 449.606245,133.531966 L447.11703,131.781936 C446.548716,131.385489 446.281608,130.841791 446.315707,130.15084 C446.605547,124.90075 444.781259,119.582698 445.207495,115.131166 C445.662146,110.464419 447.145445,105.842981 449.657394,101.266851 C449.779803,100.999417 450.096585,100.88151 450.364944,101.003497 C450.633304,101.125484 450.75162,101.441172 450.629211,101.708606 C450.083629,103.19245 450.180242,104.585678 450.919051,105.888289 C451.271405,106.522604 451.214574,107.111611 450.748556,107.65531 C448.702626,110.101954 448.009283,112.962035 448.668527,116.235554 C448.78219,116.824561 449.111812,117.249325 449.657394,117.509847 L450.151827,117.747715 C450.84517,118.0762 451.055446,118.597245 450.782655,119.310849 C448.96405,124.136174 450.174559,128.032681 454.414182,131.000369 C454.952597,131.371301 455.684059,131.283829 456.119124,130.796482 L461.080506,125.308524 C461.410128,124.934732 461.63177,124.991367 461.745433,125.47843 C462.745666,129.907309 462.580855,133.061893 461.251,134.942184 C447.833105,153.869693 427.169207,151.219162 405.31185,150.386623 C401.231355,150.239372 397.758956,149.644701 394.894653,148.602612 C394.155845,148.34209 394.081964,147.951306 394.673011,147.430262 C408.301181,135.514201 412.972723,120.641778 408.687635,102.812994 C404.885614,86.9947623 387.853243,75.1523267 373.088444,70.4969073 C372.690792,70.3747202 372.39534,70.0408363 372.323434,69.6323852 C372.251528,69.223934 372.415288,68.8097647 372.747456,68.559981 C396.974683,50.1761714 425.31082,51.450465 446.895387,73.2833627 C447.634196,74.382087 447.691027,75.1070185 447.065882,75.4581572 C435.438176,66.4191676 412.182766,58.7054435 398.969465,68.9847455 C398.378418,69.4491547 398.355686,69.9418816 398.901267,70.4629261 C417.774976,88.0311878 424.918684,117.509847 410.102737,139.76751 C409.527322,140.625073 409.42736,141.714855 409.837219,142.662171 C410.247078,143.609488 411.110873,144.285171 412.131618,144.45691 C422.719308,146.240921 437.467058,145.816157 446.452102,139.019924 C446.816853,138.753735 446.971355,138.28585 446.836506,137.855822 C446.701657,137.425795 446.307312,137.128833 445.855373,137.116979 L427.39085,136.454346 C426.924832,136.443019 426.617943,136.210814 426.470181,135.757732 C421.684977,120.22834 421.667927,104.687622 426.419033,89.1355756 C427.782986,84.6670526 430.289251,82.2204088 435.267682,82.1524464 C449.077713,81.9825406 462.71725,96.27162 474.4984,107.842206 C479.954215,113.177249 485.444128,113.313174 491.513722,109.184462 C492.820844,108.300952 492.94019,107.281517 491.87176,106.126157 L480.158808,93.4341928 C478.840319,91.6331911 478.630043,90.472168 479.527979,89.9511235 C487.382079,93.6890515 495.713563,95.4673991 504.52243,95.2861662 C505.181674,95.2748392 505.51698,94.9406911 505.528346,94.2837219 C505.647692,86.0602803 501.845671,80.9631057 493.747196,78.5164619 C484.404113,75.6960253 474.816656,74.2518259 464.984823,74.1838635 C464.234648,74.1838635 463.734532,74.5350022 463.484474,75.2372796 L462.71725,77.4460553 C462.489924,78.1143515 462.097788,78.2389491 461.54084,77.8198481 C451.231623,70.0947968 443.695779,60.2629135 438.933308,48.3241979 C438.649151,47.6105935 438.893526,47.2764454 439.666433,47.3217536 C452.283004,48.1033204 459.989343,54.5597415 469.434722,62.8171643 C477.209258,69.6303876 487.916294,73.3003533 497.481019,73.4872497 C500.322589,73.543885 501.226209,71.9694244 500.191877,68.7638679 C492.400292,44.4333547 467.610434,28.7850288 443.485503,23.8917412 C440.075619,23.1894638 436.983991,22.1247207 434.210618,20.6975118 C424.469716,15.6343184 414.438973,11.2620754 404.11839,7.58078263 C403.819102,7.47977567 403.488386,7.548521 403.254576,7.76034186 C403.020766,7.97216272 402.920669,8.29371417 402.993128,8.60021754 C404.561675,15.2152174 407.056574,21.5470409 410.477824,27.5956881 C410.568754,27.9468268 410.591487,28.303629 410.546022,28.6660947 C410.500557,28.937944 410.347112,29.034224 410.085687,28.9549346 C409.937926,28.9096264 409.790164,28.8756452 409.642403,28.8529911 C396.497299,18.1489245 377.180305,21.8188902 361.904024,26.0835263 C361.562241,26.1879443 361.196478,26.018556 361.056188,25.6908854 C360.915898,25.3632149 361.046293,24.9828631 361.358442,24.8092326 C371.997281,18.5566985 383.465858,14.7451446 395.764174,13.374571 C396.412052,13.2952817 396.645061,12.9384794 396.4632,12.3041644 L393.411354,1.99088119 C393.256635,1.48057424 393.379448,0.927331475 393.736375,0.526743236 C394.093301,0.126154997 394.634049,-0.0653341867 395.167444,0.0199736944 C409.034307,2.2627305 422.389686,6.54435713 435.233583,12.8648536 C438.251331,14.3600248 441.388424,15.0226575 444.678963,15.7362619 C445.065191,15.8188556 445.464624,15.6724609 445.70512,15.3601687 C445.945616,15.0478766 445.984192,14.6255015 445.804224,14.2750719 C444.690329,12.1229315 444.025401,9.6706242 443.809442,6.91814993 Z M457.568325,18.4207739 C455.647423,16.6537533 453.499196,15.1699092 451.123644,13.9692414 C450.384835,13.5954486 450.060896,13.8163262 450.151827,14.6318741 C450.492815,17.6222165 455.010912,18.5227173 457.12504,19.18535 C458.398063,19.5704699 458.545825,19.3156112 457.568325,18.4207739 Z M468.974387,66.6400452 L455.93158,55.3243177 C455.568667,55.0107532 455.035715,54.99104 454.650474,55.2769312 C454.265234,55.5628225 454.13147,56.0773122 454.328935,56.5136584 C457.12504,62.6755761 461.915927,66.2492618 468.701597,67.2347156 C469.474504,67.3479861 469.565434,67.1497627 468.974387,66.6400452 Z M502.118462,112.871418 L505.323753,104.563024 C505.43578,104.296189 505.344934,103.98763 505.105997,103.823415 C504.86706,103.659199 504.545359,103.684225 504.334886,103.883401 L499.100714,108.504839 C498.577865,108.957921 498.492618,109.478966 498.844973,110.067972 L500.584014,112.990353 C501.186427,114.009787 501.697909,113.970143 502.118462,112.871418 Z" id="Shape"></path>
                    <path d="M231.767548,40.89813 C232.130781,40.352569 232.163205,39.6561587 231.852185,39.0803134 C231.541165,38.5044681 230.935915,38.1403091 230.272322,38.1297612 C218.253228,38.0059724 206.532034,37.9834653 195.108739,38.06224 C189.265328,38.1128809 186.068638,40.2566787 181.806386,44.578035 C174.989073,51.4989571 168.188947,58.1723015 161.406007,64.5980682 C159.893152,66.0298586 157.878394,66.8443291 155.768835,66.8769084 L131.295255,67.2482749 C130.778065,67.2576302 130.306632,66.9583878 130.102867,66.4914058 C129.899101,66.0244239 130.003604,65.4827495 130.367184,65.1213574 C141.824852,53.8228114 153.420013,42.4398639 165.152665,30.9725149 C166.882773,29.2844852 169.311798,28.4123364 172.439742,28.3560688 C200.476656,27.8496598 228.51357,27.8834204 256.550485,28.4573506 C261.001789,28.5586324 271.141825,29.9934577 265.160922,37.2351054 C252.717895,52.3260917 238.762455,63.230764 218.155838,60.2091907 C217.758762,60.1531606 217.368925,60.3493982 217.183366,60.6987178 C216.997806,61.0480374 217.056943,61.4743486 217.330886,61.7621781 L240.137375,84.9725876 C240.399354,85.2418218 240.472179,85.6387584 240.322362,85.9808753 C240.172546,86.3229922 239.829086,86.5440716 239.449915,86.5424553 C230.289509,86.5762159 215.337252,89.1420212 208.56577,81.7484507 C200.098553,72.5205546 191.379268,63.2251373 182.407913,53.8621988 C182.178151,53.6255841 182.117162,53.2728233 182.253235,52.967543 C182.596965,52.1235281 183.272967,51.8196827 184.281242,52.0560069 C184.859935,52.1923119 185.357149,52.303936 185.484297,52.3260917 C201.381812,52.5117749 221.644698,55.8709542 231.767548,40.89813 Z" id="Path"></path>
                    <path d="M151,28.0369633 C150.785519,28.2451648 150.571039,28.4533664 150.356558,28.6615679 C146.174188,34.5779614 142.499798,36.7293772 134.964758,36.7467273 C114.860031,36.7814275 94.8061019,36.712027 74.8029706,36.5385258 C74.440586,36.5394964 74.1368676,36.8195168 74.0978018,37.1886729 C74.0587359,37.557829 74.2968177,37.8980471 74.6505766,37.9785863 C87.3613699,40.6852062 100.122961,43.7041284 112.935351,47.0353529 C128.208622,50.9911819 125.939644,64.6630824 111.902458,67.0053496 C100.422105,68.9312137 85.1657666,67.4391027 75.768133,67.5952539 C50.9561226,68 26.0368719,68.0926242 1.01038088,67.8728559 C0.644491252,67.8736035 0.308116654,67.670091 0.129476416,67.3398933 C-0.0491638208,67.0096956 -0.0425432332,66.6036924 0.146814542,66.2766442 C3.63494522,60.4470014 8.10517094,58.4517367 15.0306343,58.3996863 C36.1287451,58.2724521 57.0462407,58.3823362 77.7831211,58.7293388 C78.1666138,58.735242 78.4866074,58.4430671 78.5257097,58.0513073 C78.564812,57.6595475 78.3104875,57.2937944 77.9355152,57.2025275 C69.0627944,55.3981143 36.2642065,50.6615295 34.5540065,39.7656495 C33.1485946,30.7782835 46.6778005,28.2278147 52.5703707,28.1931145 C84.9907957,28.0080464 117.800672,27.9559961 151,28.0369633 Z" id="Path"></path>
                    <path d="M277.380853,38.2153743 C276.89036,37.1800903 276.873639,36.5071558 277.330689,36.1965706 L284.152997,29.2601682 C284.543162,28.8575578 285.01136,28.6389978 285.55759,28.6044884 C300.790735,27.4484213 319.51864,28.3284126 331.022924,28.2076295 C351.801981,27.9775664 372.586611,28.0695917 393.376816,28.4837052 C393.632131,28.4887837 393.859695,28.6510883 393.954534,28.8957499 C394.049373,29.1404115 393.99306,29.419889 393.811571,29.6052628 L385.919096,37.6632228 C385.533209,38.061183 385.009905,38.2846299 384.464339,38.2843932 L350.436405,38.2843932 C349.812141,38.2843932 349.277058,38.5087047 348.831156,38.9573277 C340.481631,47.4696624 332.198992,56.0165064 323.983239,64.59786 C319.217656,69.5844776 301.710409,67.6174381 294.904822,67.6174381 C294.369739,67.6174381 293.700885,67.3241077 293.299573,67.0307772 C293.068729,66.8555379 292.923138,66.5853787 292.900667,66.2905671 C292.878197,65.9957556 292.981067,65.7054311 293.182523,65.4951061 L319.033721,39.1126203 C319.579951,38.5604689 319.47405,38.2843932 318.716015,38.2843932 L277.380853,38.2153743 Z" id="Path"></path>
                </g>
            </g>
        </g>
    </g>
</svg>